<?xml version="1.0" encoding="utf-8"?>
<!-- Generator: Adobe Illustrator 15.0.0, SVG Export Plug-In . SVG Version: 6.00 Build 0)  -->
<!DOCTYPE svg PUBLIC "-//W3C//DTD SVG 1.1//EN" "http://www.w3.org/Graphics/SVG/1.1/DTD/svg11.dtd">
<svg version="1.1" id="Layer_1" xmlns="http://www.w3.org/2000/svg" xmlns:xlink="http://www.w3.org/1999/xlink" x="0px" y="0px"
	 width="29px" height="29px" viewBox="0 0 29 29" enable-background="new 0 0 29 29" xml:space="preserve">
<path fill="#8E8E93" d="M6,0h17c3.312,0,6,2.687,6,6v17c0,3.312-2.688,6-6,6H6c-3.313,0-6-2.688-6-6V6C0,2.687,2.687,0,6,0z"/>
<path fill="#FFFFFF" d="M16.077-15.74c-0.139-0.064-0.281-0.125-0.428-0.182c-0.144-0.053-0.287-0.106-0.437-0.149v-2.176
	c0.215,0.119,0.364,0.278,0.448,0.474c0.087,0.195,0.127,0.411,0.127,0.648h1.355c0.03-0.333-0.091-0.785-0.365-1.361
	c-0.273-0.573-0.795-0.944-1.565-1.114v-0.723h-1.432v0.709c-0.697,0.134-1.212,0.413-1.543,0.839
	c-0.334,0.426-0.514,0.858-0.533,1.294c-0.04,0.54,0.075,0.991,0.332,1.355c0.26,0.363,0.634,0.639,1.122,0.832
	c0.096,0.038,0.197,0.076,0.306,0.117c0.107,0.042,0.211,0.08,0.317,0.115v2.202c-0.23-0.104-0.415-0.261-0.562-0.469
	c-0.146-0.207-0.217-0.482-0.217-0.834H11.56c0,0.564,0.168,1.122,0.504,1.679c0.337,0.556,0.909,0.905,1.716,1.055v0.743
	l1.432,0.012v-0.755c0.695-0.104,1.225-0.351,1.588-0.738c0.362-0.387,0.568-0.854,0.622-1.395c0.061-0.489-0.039-0.922-0.289-1.298
	C16.882-15.24,16.529-15.531,16.077-15.74z M13.781-16.482c-0.203-0.104-0.361-0.218-0.49-0.343
	c-0.125-0.127-0.188-0.305-0.188-0.533c0-0.209,0.052-0.391,0.161-0.549c0.107-0.161,0.278-0.296,0.517-0.407V-16.482z
	 M15.946-13.539c-0.015,0.165-0.085,0.303-0.207,0.42c-0.12,0.121-0.297,0.221-0.526,0.303v-1.832
	c0.044,0.02,0.071,0.033,0.083,0.038c0.01,0.006,0.024,0.01,0.039,0.018c0.252,0.094,0.425,0.233,0.521,0.415
	C15.955-13.995,15.983-13.784,15.946-13.539z"/>
<path fill="#FFFFFF" d="M24.715-16.928l-2.209-0.262c-0.213-1.005-0.609-1.942-1.154-2.774l1.38-1.749
	c0.098-0.123,0.087-0.318-0.025-0.428l-1.563-1.566c-0.113-0.113-0.306-0.123-0.431-0.025l-1.749,1.379
	c-0.831-0.544-1.768-0.941-2.774-1.151l-0.261-2.21C15.908-25.871,15.765-26,15.605-26h-2.212c-0.159,0-0.302,0.129-0.322,0.286
	l-0.261,2.21c-1.006,0.21-1.942,0.607-2.774,1.151l-1.749-1.379C8.162-23.83,7.97-23.82,7.859-23.707l-1.564,1.566
	c-0.114,0.11-0.127,0.305-0.027,0.428l1.377,1.749c-0.542,0.832-0.939,1.77-1.15,2.774l-2.209,0.262C4.128-16.91,4-16.765,4-16.607
	v2.213c0,0.158,0.128,0.303,0.286,0.322l2.209,0.261c0.21,1.006,0.608,1.943,1.15,2.775l-1.377,1.75
	C6.167-9.163,6.181-8.971,6.295-8.859l1.564,1.566c0.11,0.111,0.303,0.121,0.429,0.024l1.748-1.38
	c0.832,0.544,1.768,0.941,2.774,1.153l0.261,2.208C13.091-5.13,13.235-5.002,13.394-5l2.212-0.002
	C15.765-5,15.908-5.13,15.928-5.287l0.261-2.208c1.007-0.212,1.943-0.609,2.774-1.153l1.749,1.38
	c0.125,0.097,0.317,0.087,0.431-0.024l1.563-1.566c0.112-0.111,0.123-0.304,0.025-0.427l-1.38-1.75
	c0.545-0.832,0.942-1.77,1.154-2.775l2.209-0.261C24.87-14.092,25-14.236,25-14.395v-2.213C25-16.765,24.87-16.91,24.715-16.928z
	 M14.499-9.021c-3.578,0-6.478-2.902-6.478-6.479s2.9-6.479,6.478-6.479c3.578,0,6.479,2.901,6.479,6.479S18.077-9.021,14.499-9.021
	z"/>
<path fill="#FFFFFF" d="M4.5,17.99c0,0.575,0.467,1.042,1.041,1.042c0.575,0,1.042-0.467,1.042-1.042v-0.958
	c0-0.509,0.408-0.917,0.917-0.917h0.366c-0.021,0.191-0.033,0.392-0.033,0.596c0,0.812,0.154,1.588,0.434,2.3L7,20.374
	c-0.238,0.254-0.417,0.816-0.417,1.158v1.875c0,0.574,0.467,1.041,1.042,1.041c0.574,0,1.041-0.467,1.041-1.041v-1.275
	c0-0.188,0.055-0.358,0.15-0.504l0.638-0.68c0.8,0.904,1.712,1.825,3.062,2.191c0.029,0.014,0.062,0.021,0.097,0.029
	c0.07,0.021,0.146,0.029,0.221,0.029c0.458,0,0.833-0.375,0.833-0.833v-7.084c0-0.458,0.375-0.833,0.834-0.833
	c0.457,0,0.833,0.375,0.833,0.833v7.084c0,0.458,0.375,0.833,0.833,0.833c0.088,0,0.175-0.012,0.259-0.041l0.104-0.029
	c1.292-0.358,2.226-1.283,3.017-2.18l0.639,0.68c0.096,0.146,0.149,0.316,0.149,0.504v1.275c0,0.574,0.467,1.041,1.042,1.041
	c0.574,0,1.041-0.467,1.041-1.041v-1.876c0-0.341-0.179-0.903-0.416-1.157l-1.268-1.363c0.279-0.712,0.434-1.487,0.434-2.3
	c0-0.204-0.012-0.404-0.033-0.596h0.366c0.509,0,0.917,0.408,0.917,0.917v0.958c0,0.575,0.467,1.042,1.042,1.042
	S24.5,18.565,24.5,17.99v-1.875c0-1.15-0.934-2.084-2.084-2.084h-1.962c-0.188-0.35-0.4-0.688-0.617-1.024l1.746-1.892
	C21.82,10.86,22,10.265,22,9.865V7.989c0-0.574-0.467-1.041-1.042-1.041s-1.042,0.467-1.042,1.041v1.375
	c0,0.188-0.054,0.359-0.149,0.505l-1.121,1.2c-0.467-0.909-0.812-1.946-0.812-3.288c0-1.554-1.062-2.858-2.5-3.229v1.979
	c0,0.459-0.376,0.833-0.833,0.833c-0.459,0-0.834-0.374-0.834-0.833V4.553c-1.438,0.37-2.5,1.675-2.5,3.229
	c0,1.338-0.35,2.371-0.816,3.279L9.233,9.869c-0.097-0.146-0.15-0.316-0.15-0.504V7.99c0-0.575-0.467-1.042-1.042-1.042
	C7.467,6.948,7,7.415,7,7.99v1.875c0,0.399,0.179,0.996,0.416,1.25l1.737,1.883c-0.22,0.338-0.429,0.68-0.616,1.033H6.583
	c-1.149,0-2.083,0.934-2.083,2.084V17.99z"/>
</svg>
