<?xml version="1.0" encoding="utf-8"?>
<!-- Generator: Adobe Illustrator 15.0.0, SVG Export Plug-In . SVG Version: 6.00 Build 0)  -->
<!DOCTYPE svg PUBLIC "-//W3C//DTD SVG 1.1//EN" "http://www.w3.org/Graphics/SVG/1.1/DTD/svg11.dtd">
<svg version="1.1" id="Layer_1" xmlns="http://www.w3.org/2000/svg" xmlns:xlink="http://www.w3.org/1999/xlink" x="0px" y="0px"
	 width="24px" height="24px" viewBox="0 0 24 24" enable-background="new 0 0 24 24" xml:space="preserve">
<path fill="#757575" d="M2,15.49c0,0.575,0.467,1.042,1.041,1.042c0.575,0,1.042-0.467,1.042-1.042v-0.958
	c0-0.509,0.408-0.917,0.917-0.917h0.366c-0.021,0.191-0.033,0.392-0.033,0.596c0,0.812,0.154,1.588,0.434,2.3L4.5,17.874
	c-0.238,0.254-0.417,0.816-0.417,1.158v1.875c0,0.574,0.467,1.041,1.042,1.041c0.574,0,1.041-0.467,1.041-1.041v-1.275
	c0-0.188,0.055-0.358,0.15-0.504l0.638-0.68c0.8,0.904,1.712,1.825,3.062,2.191c0.029,0.014,0.062,0.021,0.097,0.029
	c0.07,0.021,0.146,0.029,0.221,0.029c0.458,0,0.833-0.375,0.833-0.833v-7.084c0-0.458,0.375-0.833,0.834-0.833
	c0.457,0,0.833,0.375,0.833,0.833v7.084c0,0.458,0.375,0.833,0.833,0.833c0.088,0,0.175-0.012,0.259-0.041l0.104-0.029
	c1.292-0.358,2.226-1.283,3.017-2.18l0.639,0.68c0.096,0.146,0.149,0.316,0.149,0.504v1.275c0,0.574,0.467,1.041,1.042,1.041
	c0.574,0,1.041-0.467,1.041-1.041v-1.876c0-0.341-0.179-0.903-0.416-1.157l-1.268-1.363c0.279-0.712,0.434-1.487,0.434-2.3
	c0-0.204-0.012-0.404-0.033-0.596h0.366c0.509,0,0.917,0.408,0.917,0.917v0.958c0,0.575,0.467,1.042,1.042,1.042S22,16.065,22,15.49
	v-1.875c0-1.15-0.934-2.084-2.084-2.084h-1.962c-0.188-0.35-0.4-0.688-0.617-1.024l1.746-1.892C19.32,8.36,19.5,7.765,19.5,7.365
	V5.489c0-0.574-0.467-1.041-1.042-1.041s-1.042,0.467-1.042,1.041v1.375c0,0.188-0.054,0.359-0.149,0.505l-1.121,1.2
	c-0.467-0.909-0.812-1.946-0.812-3.288c0-1.554-1.062-2.858-2.5-3.229v1.979c0,0.459-0.376,0.833-0.833,0.833
	c-0.459,0-0.834-0.374-0.834-0.833V2.053c-1.438,0.37-2.5,1.675-2.5,3.229c0,1.338-0.35,2.371-0.816,3.279L6.733,7.369
	c-0.097-0.146-0.15-0.316-0.15-0.504V5.49c0-0.575-0.467-1.042-1.042-1.042C4.967,4.448,4.5,4.915,4.5,5.49v1.875
	c0,0.399,0.179,0.996,0.416,1.25l1.737,1.883c-0.22,0.338-0.429,0.68-0.616,1.033H4.083C2.934,11.531,2,12.465,2,13.615V15.49z"/>
</svg>
