<?xml version="1.0" encoding="utf-8"?>
<!-- Generator: Adobe Illustrator 15.0.0, SVG Export Plug-In . SVG Version: 6.00 Build 0)  -->
<!DOCTYPE svg PUBLIC "-//W3C//DTD SVG 1.1//EN" "http://www.w3.org/Graphics/SVG/1.1/DTD/svg11.dtd">
<svg version="1.1" id="Layer_1" xmlns="http://www.w3.org/2000/svg" xmlns:xlink="http://www.w3.org/1999/xlink" x="0px" y="0px"
	 width="29px" height="29px" viewBox="0 0 29 29" enable-background="new 0 0 29 29" xml:space="preserve">
<path fill="#8E8E93" d="M6,0h17c3.312,0,6,2.687,6,6v17c0,3.312-2.688,6-6,6H6c-3.313,0-6-2.688-6-6V6C0,2.687,2.687,0,6,0z"/>
<g>
	<path fill="#FFFFFF" d="M21.412,19.302c-0.071-0.078-0.173-0.124-0.279-0.124h-5.563c-0.106,0-0.208,0.046-0.28,0.124
		c-0.072,0.079-0.107,0.184-0.098,0.29l0.506,5.563c0.018,0.195,0.182,0.345,0.378,0.345h4.552c0.195,0,0.359-0.149,0.378-0.345
		l0.506-5.563C21.52,19.485,21.484,19.381,21.412,19.302z M20.487,22.466h-4.272l-0.23-2.529h4.732L20.487,22.466z"/>
	<path fill="#FFFFFF" d="M12.543,10.82c-0.078-0.074-0.17-0.163-0.219-0.218c0.004-0.061,0.013-0.142,0.022-0.239
		c0.059-0.62,0.167-1.774-0.101-2.579c-0.149-0.449-0.221-1.145-0.256-1.71c0.106-0.067,0.178-0.185,0.178-0.32L12.04,3.879
		c0-0.209-0.17-0.379-0.379-0.379H9.638c-0.209,0-0.379,0.17-0.379,0.379L9.132,5.754c0,0.136,0.071,0.253,0.178,0.32
		C9.275,6.64,9.203,7.335,9.053,7.784c-0.269,0.805-0.159,1.959-0.101,2.579c0.009,0.097,0.018,0.179,0.022,0.239
		c-0.048,0.055-0.141,0.144-0.218,0.218c-0.474,0.453-1.268,1.212-1.268,2.441c0,1.533,0.297,11.449,0.31,11.87
		C7.804,25.337,7.972,25.5,8.177,25.5h2.472h2.472c0.205,0,0.373-0.163,0.379-0.368c0.014-0.421,0.311-10.337,0.311-11.87
		C13.811,12.032,13.017,11.273,12.543,10.82z M11.345,4.259l0.063,1.011H9.891l0.063-1.011H11.345z M12.754,24.741h-2.104H8.545
		c-0.016-0.555-0.05-1.687-0.088-3.034h4.385C12.803,23.055,12.77,24.187,12.754,24.741z M13.049,13.615H8.25
		c-0.002-0.145-0.003-0.265-0.003-0.354c0-0.906,0.622-1.5,1.033-1.893c0.265-0.253,0.456-0.436,0.456-0.694
		c0-0.083-0.012-0.209-0.028-0.383C9.654,9.727,9.555,8.677,9.773,8.024C9.82,7.881,9.859,7.717,9.894,7.546H9.891V6.028h1.517
		v1.518h-0.003c0.035,0.171,0.074,0.335,0.122,0.478c0.217,0.653,0.118,1.704,0.065,2.268c-0.017,0.174-0.028,0.3-0.028,0.384
		c0,0.258,0.191,0.44,0.456,0.694c0.412,0.393,1.033,0.987,1.033,1.893C13.051,13.351,13.051,13.471,13.049,13.615z"/>
</g>
</svg>
