<?xml version="1.0" encoding="utf-8"?>
<!-- Generator: Adobe Illustrator 15.0.0, SVG Export Plug-In . SVG Version: 6.00 Build 0)  -->
<!DOCTYPE svg PUBLIC "-//W3C//DTD SVG 1.1//EN" "http://www.w3.org/Graphics/SVG/1.1/DTD/svg11.dtd">
<svg version="1.1" id="Layer_1" xmlns="http://www.w3.org/2000/svg" xmlns:xlink="http://www.w3.org/1999/xlink" x="0px" y="0px"
	 width="29px" height="29px" viewBox="0 0 29 29" enable-background="new 0 0 29 29" xml:space="preserve">
<path fill="#8E8E8E" d="M23.2,0.001H5.8c-3.203,0-5.8,2.598-5.8,5.8V23.2c0,3.2,2.597,5.799,5.8,5.799h17.4
	c3.2,0,5.8-2.599,5.8-5.799V5.801C29,2.599,26.402,0.001,23.2,0.001z"/>
<path fill="#FFFFFF" d="M19.95,7.479l2.978,2.978c0.16,0.16,0.353,0.225,0.577,0.225h3.65h1.121c0.448,0,0.801-0.353,0.801-0.801
	s-0.353-0.801-0.801-0.801h-4.483l-2.978-2.978c-0.16-0.16-0.353-0.225-0.576-0.225h-7.175H9.062c-0.224,0-0.417,0.096-0.577,0.225
	L6.052,8.535L5.54,9.079H4.066h-3.01c-0.448,0-0.801,0.353-0.801,0.801s0.353,0.801,0.801,0.801h4.803
	c0.225,0,0.417-0.096,0.577-0.225l2.723-2.722l0.255-0.256h0.673h1.057L9.319,9.304c-0.32,0.32-0.32,0.833,0,1.121
	c1.569,1.569,4.035,1.632,5.667,0.224h3.362l3.684,3.651l2.082,2.018c0.16,0.16,0.256,0.384,0.256,0.64
	c0,0.224-0.096,0.48-0.256,0.641c-0.354,0.352-0.93,0.352-1.282,0l-2.272-2.274l-1.347-1.344c-0.319-0.32-0.831-0.32-1.12,0
	c-0.16,0.16-0.225,0.353-0.225,0.576c0,0.225,0.064,0.416,0.225,0.576l1.152,1.153l2.467,2.465c0.16,0.16,0.256,0.385,0.256,0.641
	c0,0.225-0.096,0.481-0.256,0.642c-0.353,0.353-0.929,0.353-1.281,0l-2.69-2.69l-0.929-0.929c-0.32-0.321-0.832-0.321-1.121,0
	c-0.159,0.16-0.224,0.354-0.224,0.576c0,0.224,0.064,0.417,0.224,0.577l0.737,0.736l2.081,2.082c0.16,0.159,0.257,0.383,0.257,0.64
	c0,0.224-0.097,0.48-0.257,0.641c-0.352,0.353-0.929,0.353-1.281,0l-0.863-0.864c0,0,0,0-0.033-0.033l-0.864-0.863
	c0.032-0.16,0.064-0.354,0.064-0.514s0-0.32-0.032-0.447c-0.097-0.48-0.321-0.929-0.672-1.313c-0.449-0.449-1.058-0.704-1.666-0.737
	c-0.032-0.641-0.289-1.217-0.736-1.664c-0.48-0.48-1.089-0.737-1.762-0.737c-0.641,0-1.249,0.257-1.729,0.672
	c-0.128-0.287-0.289-0.543-0.512-0.769c-0.96-0.96-2.562-0.96-3.523,0l-0.801,0.802c-0.32,0.319-0.512,0.704-0.64,1.089H1.056
	c-0.448,0-0.801,0.353-0.801,0.801c0,0.447,0.353,0.801,0.801,0.801h2.498c0.128,0.32,0.32,0.576,0.544,0.831
	c0.289,0.289,0.641,0.48,1.025,0.609c-0.097,0.257-0.128,0.545-0.128,0.833c0,0.672,0.256,1.281,0.736,1.762
	c0.481,0.479,1.121,0.735,1.762,0.735c0.288,0,0.544-0.064,0.832-0.128c0.128,0.384,0.32,0.736,0.609,1.025
	c0.48,0.48,1.121,0.735,1.761,0.735c0.576,0,1.121-0.19,1.601-0.575l0.705,0.704c0.48,0.48,1.089,0.704,1.697,0.704
	c0.608,0,1.217-0.224,1.697-0.704c0.32-0.319,0.545-0.672,0.64-1.089c0.897,0.32,1.922,0.129,2.626-0.577
	c0.289-0.288,0.48-0.64,0.609-0.991c0.864,0.288,1.889,0.096,2.593-0.609c0.449-0.448,0.706-1.057,0.737-1.665
	c0.609-0.032,1.217-0.257,1.666-0.737c0.256-0.255,0.416-0.512,0.544-0.832h2.498c0.447,0,0.801-0.352,0.801-0.801
	c0-0.447-0.354-0.8-0.801-0.8h-2.435c-0.127-0.417-0.32-0.802-0.64-1.121l-1.858-1.825l-4.163-4.067
	c-0.16-0.16-0.351-0.225-0.544-0.225h-4.002c-0.224,0-0.416,0.097-0.576,0.225c-0.801,0.801-2.05,0.961-3.011,0.48l2.307-2.306
	H19.95z M5.219,17.598c-0.16-0.16-0.256-0.385-0.256-0.641c0-0.223,0.096-0.479,0.256-0.64l0.801-0.802
	c0.16-0.159,0.383-0.255,0.64-0.255c0.256,0,0.481,0.096,0.641,0.255c0.16,0.16,0.255,0.385,0.255,0.642
	c0,0.224-0.095,0.48-0.255,0.641l-0.545,0.544L6.5,17.598C6.148,17.918,5.571,17.918,5.219,17.598z M8.102,20.801
	c-0.353,0.352-0.929,0.352-1.281,0c-0.16-0.16-0.256-0.385-0.256-0.641c0-0.225,0.096-0.48,0.256-0.641l0.801-0.802l0.801-0.8
	l1.601-1.601c0.16-0.16,0.417-0.257,0.641-0.257c0.225,0,0.449,0.097,0.641,0.257c0.16,0.16,0.256,0.384,0.256,0.64
	c0,0.224-0.096,0.48-0.256,0.641L8.102,20.801z M11.304,22.401c-0.352,0.352-0.929,0.352-1.281,0
	c-0.16-0.159-0.256-0.384-0.256-0.64c0-0.225,0.096-0.48,0.256-0.641l2.402-2.403c0.16-0.159,0.416-0.255,0.64-0.255
	c0.225,0,0.449,0.096,0.641,0.255c0.16,0.16,0.256,0.386,0.256,0.642c0,0.225-0.096,0.48-0.256,0.641L11.304,22.401z M15.242,23.266
	c-0.32,0.32-0.832,0.32-1.12,0l-0.736-0.704l1.281-1.28l0.576,0.576C15.626,22.242,15.626,22.882,15.242,23.266z"/>
</svg>
