<?xml version="1.0" encoding="utf-8"?>
<!-- Generator: Adobe Illustrator 15.0.0, SVG Export Plug-In . SVG Version: 6.00 Build 0)  -->
<!DOCTYPE svg PUBLIC "-//W3C//DTD SVG 1.1//EN" "http://www.w3.org/Graphics/SVG/1.1/DTD/svg11.dtd">
<svg version="1.1" id="Layer_1" xmlns="http://www.w3.org/2000/svg" xmlns:xlink="http://www.w3.org/1999/xlink" x="0px" y="0px"
	 width="29px" height="29px" viewBox="0 0 29 29" enable-background="new 0 0 29 29" xml:space="preserve">
<path fill="#8E8E93" d="M6,0h17c3.312,0,6,2.687,6,6v17c0,3.312-2.688,6-6,6H6c-3.313,0-6-2.688-6-6V6C0,2.687,2.687,0,6,0z"/>
<path fill="#FFFFFF" d="M23.604,19.239l-4.791-4.794l4.789-4.777c0.578-0.572,0.896-1.306,0.896-2.121
	c0-0.834-0.32-1.539-0.895-2.089c-0.578-0.578-1.345-0.771-2.155-0.771c-0.005,0-0.011,0-0.015,0c-0.811,0-1.567,0.207-2.132,0.779
	l-4.788,4.683l-4.82-4.808c-0.561-0.581-1.326-0.9-2.159-0.9c-0.832,0-1.601,0.319-2.151,0.894c-1.177,1.176-1.179,3.104,0,4.301
	l4.806,4.809l-4.81,4.819c-0.564,0.58-0.873,1.355-0.873,2.158c0,0.82,0.312,1.617,0.878,2.182c0.578,0.578,1.345,0.957,2.156,0.957
	c0.004,0,0.009,0,0.012,0c0.81,0,1.569-0.379,2.132-0.951l4.823-4.858l4.786,4.785c0.561,0.58,1.326,0.899,2.161,0.899
	c0.813,0,1.577-0.315,2.146-0.889c0.576-0.566,0.896-1.326,0.899-2.133C24.506,20.593,24.188,19.821,23.604,19.239z"/>
</svg>
