<?xml version="1.0" encoding="utf-8"?>
<!-- Generator: Adobe Illustrator 15.0.0, SVG Export Plug-In . SVG Version: 6.00 Build 0)  -->
<!DOCTYPE svg PUBLIC "-//W3C//DTD SVG 1.1//EN" "http://www.w3.org/Graphics/SVG/1.1/DTD/svg11.dtd">
<svg version="1.1" id="Layer_1" xmlns="http://www.w3.org/2000/svg" xmlns:xlink="http://www.w3.org/1999/xlink" x="0px" y="0px"
	 width="24px" height="24px" viewBox="0 0 24 24" enable-background="new 0 0 24 24" xml:space="preserve">
<path fill="none" d="M0,0h24v24H0V0z"/>
<g>
	<path fill="#757575" d="M7.803,14.641h8.52v0.961h-8.52V14.641z"/>
	<path fill="#757575" d="M7.803,16.804h8.52v0.96h-8.52V16.804z"/>
	<path fill="#757575" d="M7.803,18.966h8.52v0.96h-8.52V18.966z"/>
	<path fill="#757575" d="M12.062,3.119L2,10.841h1.642v8.601c0,0.795,0.645,1.439,1.44,1.439h1.3v-6.6
		c0-0.795,0.646-1.44,1.441-1.44h8.48c0.795,0,1.439,0.646,1.439,1.44v6.6h1.3c0.796,0,1.439-0.645,1.439-1.439v-8.601H22
		L12.062,3.119z M11.999,10.505c-1.007,0-1.825-0.818-1.825-1.825c0-1.008,0.818-1.825,1.825-1.825c1.009,0,1.825,0.817,1.825,1.825
		C13.824,9.687,13.008,10.505,11.999,10.505z"/>
</g>
</svg>
