<?xml version="1.0" encoding="utf-8"?>
<!-- Generator: Adobe Illustrator 15.0.0, SVG Export Plug-In . SVG Version: 6.00 Build 0)  -->
<!DOCTYPE svg PUBLIC "-//W3C//DTD SVG 1.1//EN" "http://www.w3.org/Graphics/SVG/1.1/DTD/svg11.dtd">
<svg version="1.1" id="Layer_1" xmlns="http://www.w3.org/2000/svg" xmlns:xlink="http://www.w3.org/1999/xlink" x="0px" y="0px"
	 width="24px" height="24px" viewBox="0 0 24 24" enable-background="new 0 0 24 24" xml:space="preserve">
<g>
	<g>
		<path fill="#757575" d="M7.921,7.286C4.099,7.286,1,9.963,1,13.265c0,2.092,1.245,3.931,3.127,4.998l-0.003,0.001
			c0,0-0.845,2.014-2.09,2.519c-0.191,0.264,0.027,0.794,1.22,0.769c1.193-0.026,3.335-0.89,4.106-2.327
			c0.001-0.003,0.002-0.003,0.002-0.005c0.185,0.014,0.369,0.025,0.558,0.025c3.822,0,6.922-2.679,6.922-5.98
			C14.842,9.963,11.744,7.286,7.921,7.286z"/>
	</g>
	<g>
		<path fill="#757575" d="M20.383,17.608l-0.092-0.001c-1.254-0.027-3.384-0.845-4.346-2.315c-0.103,0.006-0.207,0.009-0.312,0.009
			c-4.062,0-7.368-2.883-7.368-6.426c0-3.544,3.306-6.426,7.368-6.426C19.694,2.449,23,5.331,23,8.875
			c0,2.054-1.112,3.961-2.997,5.171c0.323,0.632,0.962,1.64,1.684,1.933l0.119,0.047l0.074,0.105
			c0.171,0.237,0.192,0.549,0.058,0.815C21.811,17.193,21.441,17.608,20.383,17.608z M16.637,14.713
			c0.715,1.206,2.598,1.978,3.672,2l0.073,0.448v-0.447c0.304,0,0.501-0.041,0.618-0.088c-0.973-0.599-1.649-1.868-1.889-2.372
			l-0.872-0.218l0.966-0.552c1.817-1.031,2.901-2.756,2.901-4.609c0-3.051-2.903-5.533-6.473-5.533
			c-3.571,0-6.476,2.481-6.476,5.533c0,3.049,2.905,5.532,6.476,5.532c0.177,0,0.351-0.011,0.525-0.022l0.479-0.034L16.637,14.713
			L16.637,14.713z"/>
	</g>
</g>
</svg>
