<?xml version="1.0" encoding="utf-8"?>
<!-- Generator: Adobe Illustrator 15.0.0, SVG Export Plug-In . SVG Version: 6.00 Build 0)  -->
<!DOCTYPE svg PUBLIC "-//W3C//DTD SVG 1.1//EN" "http://www.w3.org/Graphics/SVG/1.1/DTD/svg11.dtd">
<svg version="1.1" id="Layer_1" xmlns="http://www.w3.org/2000/svg" xmlns:xlink="http://www.w3.org/1999/xlink" x="0px" y="0px"
	 width="24px" height="24px" viewBox="0 0 24 24" enable-background="new 0 0 24 24" xml:space="preserve">
<path fill="#757575" d="M16.381,5.605l2.372,2.374c0.131,0.128,0.283,0.179,0.463,0.179h2.907h0.896
	c0.357,0,0.637-0.281,0.637-0.638s-0.279-0.638-0.637-0.638h-3.573l-2.377-2.374c-0.126-0.128-0.278-0.179-0.457-0.179h-5.719h-3.19
	c-0.179,0-0.333,0.076-0.46,0.179L5.304,6.448L4.895,6.882H3.72h-2.4c-0.357,0-0.638,0.281-0.638,0.638S0.963,8.158,1.32,8.158
	h3.829c0.179,0,0.333-0.076,0.459-0.179l2.171-2.17l0.204-0.204h0.536h0.842L7.908,7.061c-0.257,0.255-0.257,0.665,0,0.893
	c1.249,1.251,3.215,1.3,4.516,0.178h2.682l2.935,2.911l1.659,1.608c0.131,0.127,0.205,0.305,0.205,0.509
	c0,0.178-0.074,0.384-0.205,0.513c-0.279,0.279-0.74,0.279-1.02,0l-1.814-1.813l-1.072-1.071c-0.253-0.255-0.66-0.255-0.892,0
	c-0.127,0.128-0.18,0.281-0.18,0.459c0,0.179,0.053,0.332,0.18,0.459l0.918,0.919l1.967,1.967c0.128,0.127,0.202,0.306,0.202,0.51
	c0,0.179-0.074,0.384-0.202,0.511c-0.281,0.283-0.741,0.283-1.021,0l-2.146-2.143l-0.741-0.74c-0.253-0.258-0.661-0.258-0.893,0
	c-0.126,0.126-0.179,0.28-0.179,0.457c0,0.178,0.053,0.332,0.179,0.462l0.588,0.586l1.658,1.661
	c0.129,0.125,0.205,0.303,0.205,0.509c0,0.178-0.076,0.383-0.205,0.509c-0.278,0.283-0.74,0.283-1.019,0l-0.691-0.688
	c0,0,0,0-0.025-0.027l-0.689-0.687c0.026-0.13,0.053-0.284,0.053-0.41s0-0.257-0.026-0.356c-0.078-0.383-0.258-0.739-0.535-1.049
	c-0.357-0.358-0.843-0.562-1.328-0.585c-0.026-0.513-0.23-0.971-0.587-1.328c-0.383-0.383-0.867-0.586-1.404-0.586
	c-0.51,0-0.995,0.203-1.378,0.535c-0.103-0.229-0.23-0.434-0.409-0.613c-0.765-0.764-2.042-0.764-2.809,0l-0.638,0.64
	c-0.255,0.254-0.407,0.562-0.509,0.867H1.32c-0.357,0-0.638,0.283-0.638,0.641c0,0.355,0.281,0.636,0.638,0.636h1.991
	c0.103,0.257,0.255,0.461,0.434,0.664c0.231,0.23,0.512,0.384,0.817,0.484c-0.077,0.205-0.101,0.436-0.101,0.666
	c0,0.535,0.203,1.02,0.585,1.402c0.384,0.383,0.895,0.587,1.404,0.587c0.23,0,0.435-0.053,0.664-0.102
	C7.217,17.909,7.37,18.188,7.6,18.42c0.383,0.383,0.893,0.587,1.404,0.587c0.459,0,0.893-0.151,1.275-0.46l0.562,0.562
	c0.383,0.383,0.869,0.562,1.354,0.562c0.485,0,0.969-0.179,1.352-0.562c0.257-0.253,0.436-0.536,0.511-0.867
	c0.717,0.257,1.531,0.104,2.092-0.458c0.231-0.23,0.384-0.513,0.488-0.791c0.688,0.229,1.506,0.074,2.067-0.488
	c0.357-0.356,0.562-0.84,0.586-1.326c0.486-0.023,0.969-0.202,1.327-0.586c0.204-0.203,0.334-0.408,0.435-0.665h1.99
	c0.359,0,0.64-0.278,0.64-0.636c0-0.359-0.28-0.64-0.64-0.64h-1.938c-0.104-0.332-0.257-0.639-0.511-0.893l-1.482-1.456
	l-3.318-3.242c-0.127-0.128-0.277-0.179-0.433-0.179h-3.191c-0.178,0-0.331,0.077-0.459,0.179c-0.639,0.638-1.634,0.767-2.4,0.383
	l1.838-1.839H16.381z M4.64,13.673c-0.128-0.129-0.205-0.309-0.205-0.513c0-0.177,0.076-0.382,0.205-0.509l0.638-0.639
	c0.127-0.127,0.306-0.204,0.509-0.204c0.205,0,0.383,0.076,0.512,0.204c0.128,0.127,0.204,0.307,0.204,0.513
	c0,0.178-0.076,0.383-0.204,0.51L5.865,13.47l-0.204,0.203C5.38,13.927,4.92,13.927,4.64,13.673z M6.937,16.226
	c-0.281,0.278-0.74,0.278-1.021,0c-0.128-0.127-0.205-0.307-0.205-0.51c0-0.179,0.077-0.383,0.205-0.513l0.638-0.638l0.638-0.639
	l1.277-1.275c0.126-0.126,0.332-0.205,0.51-0.205c0.179,0,0.357,0.079,0.512,0.205c0.126,0.127,0.205,0.305,0.205,0.509
	c0,0.178-0.078,0.384-0.205,0.513L6.937,16.226z M9.49,17.501c-0.281,0.282-0.74,0.282-1.021,0
	c-0.128-0.126-0.204-0.305-0.204-0.509c0-0.179,0.076-0.383,0.204-0.512l1.914-1.915c0.128-0.129,0.333-0.203,0.511-0.203
	c0.179,0,0.358,0.074,0.51,0.203c0.128,0.127,0.205,0.307,0.205,0.511c0,0.179-0.077,0.383-0.205,0.51L9.49,17.501z M12.628,18.188
	c-0.255,0.257-0.663,0.257-0.892,0l-0.587-0.562l1.021-1.018l0.458,0.457C12.935,17.375,12.935,17.884,12.628,18.188z"/>
</svg>
