<?xml version="1.0" encoding="utf-8"?>
<!-- Generator: Adobe Illustrator 15.0.0, SVG Export Plug-In . SVG Version: 6.00 Build 0)  -->
<!DOCTYPE svg PUBLIC "-//W3C//DTD SVG 1.1//EN" "http://www.w3.org/Graphics/SVG/1.1/DTD/svg11.dtd">
<svg version="1.1" id="Layer_1" xmlns="http://www.w3.org/2000/svg" xmlns:xlink="http://www.w3.org/1999/xlink" x="0px" y="0px"
	 width="29px" height="29px" viewBox="0 0 29 29" enable-background="new 0 0 29 29" xml:space="preserve">
<path fill="#8E8E93" d="M6,0h17c3.312,0,6,2.687,6,6v17c0,3.312-2.688,6-6,6H6c-3.313,0-6-2.688-6-6V6C0,2.687,2.687,0,6,0z"/>
<g>
	<path fill="#FFFFFF" d="M-30.75,2.875v21h10.539v-21H-30.75z M-23.658,7.579h2.149v2.333h-2.149V7.579z M-26.691,7.579h2.149v2.333
		h-2.149V7.579z M-29.725,7.579h2.149v2.333h-2.149V7.579z M-27.575,16.796h-2.15v-2.334h2.149L-27.575,16.796L-27.575,16.796z
		 M-27.575,13.295h-2.15v-2.333h2.149L-27.575,13.295L-27.575,13.295z M-27.575,6.412h-2.149V4.079h2.148L-27.575,6.412
		L-27.575,6.412z M-24.542,16.796h-2.149v-2.334h2.149V16.796z M-24.542,13.295h-2.148v-2.333h2.148V13.295z M-24.542,6.412h-2.148
		V4.079h2.148V6.412z M-21.509,16.796h-2.149v-2.334h2.149V16.796z M-21.509,13.295h-2.149v-2.333h2.149V13.295z M-21.508,6.412
		h-2.148V4.079h2.148V6.412z"/>
	<path fill="#FFFFFF" d="M-19.9,10.074v13.793h10.15V10.074H-19.9z M-18.947,14.566h2.148v2.332h-2.148V14.566z M-16.799,20.283
		h-2.148v-2.334h2.148V20.283z M-16.799,13.399h-2.146v-2.333h2.146V13.399z M-15.915,14.566h2.149v2.332h-2.149V14.566z
		 M-13.766,20.283h-2.149v-2.334h2.149V20.283z M-13.766,13.399h-2.149v-2.333h2.149V13.399z M-12.882,14.566h2.149v2.332h-2.149
		V14.566z M-10.732,20.283h-2.148v-2.334h2.148V20.283z M-10.732,13.399h-2.147v-2.333h2.147V13.399z"/>
</g>
<g>
	<path fill="#FFFFFF" d="M23.631,24.252l0.535-0.535c0.445-0.445,0.445-1.175,0-1.62l-7.461-7.137
		c-0.02-0.02-0.041-0.035-0.062-0.055c0.461-1.019,0.384-2.245-0.314-3.22c-0.707-0.988-1.871-1.457-3.001-1.33l1.604,2.236
		c0.276,0.385,0.186,0.924-0.198,1.199l-1.167,0.833c-0.384,0.274-0.922,0.187-1.197-0.197l-1.603-2.237
		c-0.484,1.027-0.414,2.279,0.294,3.268c0.853,1.189,2.358,1.626,3.676,1.178c0.042,0.053,0.087,0.105,0.138,0.155l7.137,7.462
		C22.457,24.697,23.186,24.697,23.631,24.252z M22.188,23.294c-0.283-0.282-0.283-0.739,0-1.021c0.281-0.282,0.738-0.282,1.02,0
		c0.283,0.282,0.283,0.739,0,1.021C22.926,23.575,22.469,23.575,22.188,23.294z"/>
	<path fill="#FFFFFF" d="M4.5,12.764v2.691l1.896,0.229c0.206,1.028,0.61,1.983,1.172,2.827l-1.181,1.504l1.903,1.903l1.504-1.181
		c0.844,0.561,1.799,0.966,2.826,1.172l0.229,1.897h2.692l0.229-1.897c0.688-0.139,1.342-0.367,1.953-0.669l-1.857-2.043
		c-0.527,0.172-1.086,0.269-1.671,0.269c-2.958,0-5.356-2.397-5.356-5.355s2.398-5.356,5.356-5.356c2.958,0,5.357,2.398,5.357,5.356
		c0,0.628-0.113,1.228-0.312,1.788l2.137,1.64c0.278-0.582,0.488-1.203,0.619-1.854l1.897-0.229v-2.692l-1.897-0.229
		c-0.205-1.027-0.61-1.982-1.172-2.826l1.181-1.504l-1.903-1.902l-1.504,1.18c-0.844-0.561-1.799-0.965-2.826-1.172l-0.229-1.896
		h-2.692l-0.229,1.896c-1.027,0.207-1.983,0.611-2.826,1.172l-1.504-1.18L6.388,8.205l1.181,1.504
		c-0.561,0.844-0.966,1.799-1.172,2.826L4.5,12.764z"/>
</g>
</svg>
