<?xml version="1.0" encoding="utf-8"?>
<!-- Generator: Adobe Illustrator 15.0.0, SVG Export Plug-In . SVG Version: 6.00 Build 0)  -->
<!DOCTYPE svg PUBLIC "-//W3C//DTD SVG 1.1//EN" "http://www.w3.org/Graphics/SVG/1.1/DTD/svg11.dtd">
<svg version="1.1" id="Layer_1" xmlns="http://www.w3.org/2000/svg" xmlns:xlink="http://www.w3.org/1999/xlink" x="0px" y="0px"
	 width="29px" height="29px" viewBox="0 0 29 29" enable-background="new 0 0 29 29" xml:space="preserve">
<path fill="#8E8E93" d="M6,0h17c3.312,0,6,2.687,6,6v17c0,3.312-2.688,6-6,6H6c-3.313,0-6-2.688-6-6V6C0,2.687,2.687,0,6,0z"/>
<g transform="translate(0,-952.36218)">
	<path fill="#FFFFFF" d="M23.5,956.862l-8.096,3.371v8.973l8.096,3.37V956.862z M7.786,960.433c-2.355,0-4.286,1.912-4.286,4.286
		c0,2.375,1.93,4.286,4.286,4.286h6.667v-8.571H7.786z M8.121,969.958l1.57,4.523c0.38,0.995,1.156,2.381,3.096,2.381
		c1.595,0,2.618-1.279,2.618-2.857s-1.278-2.856-2.856-2.856H12.31l-0.395-1.19H8.121z"/>
</g>
</svg>
