<?xml version="1.0" encoding="utf-8"?>
<!-- Generator: Adobe Illustrator 15.0.0, SVG Export Plug-In . SVG Version: 6.00 Build 0)  -->
<!DOCTYPE svg PUBLIC "-//W3C//DTD SVG 1.1//EN" "http://www.w3.org/Graphics/SVG/1.1/DTD/svg11.dtd">
<svg version="1.1" id="Layer_1" xmlns="http://www.w3.org/2000/svg" xmlns:xlink="http://www.w3.org/1999/xlink" x="0px" y="0px"
	 width="29px" height="29px" viewBox="0 0 29 29" enable-background="new 0 0 29 29" xml:space="preserve">
<g>
	<g>
		<path fill="#757575" d="M9.228,8.406c-4.94,0-8.945,3.459-8.945,7.728c0,2.703,1.609,5.079,4.042,6.459H4.32
			c0,0-1.092,2.604-2.701,3.258c-0.247,0.341,0.035,1.027,1.577,0.994s4.31-1.151,5.307-3.007c0.001-0.003,0.002-0.003,0.002-0.008
			c0.239,0.021,0.477,0.032,0.722,0.032c4.94,0,8.946-3.462,8.946-7.727C18.173,11.865,14.17,8.406,9.228,8.406z"/>
	</g>
	<g>
		<path fill="#757575" d="M25.335,21.744h-0.119c-1.62-0.034-4.373-1.093-5.616-2.991c-0.135,0.008-0.267,0.013-0.404,0.013
			c-5.25,0-9.523-3.727-9.523-8.306c0-4.581,4.272-8.306,9.523-8.306c5.249,0,9.522,3.725,9.522,8.306
			c0,2.656-1.437,5.12-3.873,6.683c0.417,0.817,1.243,2.121,2.177,2.499l0.153,0.061l0.095,0.135
			c0.222,0.308,0.249,0.711,0.076,1.053C27.181,21.21,26.703,21.744,25.335,21.744z M20.493,18.005
			c0.923,1.56,3.357,2.559,4.745,2.585l0.096,0.579v-0.578c0.392,0,0.647-0.053,0.799-0.113c-1.257-0.775-2.131-2.414-2.441-3.066
			l-1.127-0.28l1.249-0.715c2.347-1.332,3.748-3.562,3.748-5.957c0-3.944-3.751-7.152-8.367-7.152c-4.615,0-8.37,3.208-8.37,7.152
			c0,3.94,3.754,7.151,8.37,7.151c0.23,0,0.456-0.016,0.679-0.03l0.619-0.04L20.493,18.005L20.493,18.005z"/>
	</g>
</g>
</svg>
