<?xml version="1.0" encoding="utf-8"?>
<!-- Generator: Adobe Illustrator 15.0.0, SVG Export Plug-In . SVG Version: 6.00 Build 0)  -->
<!DOCTYPE svg PUBLIC "-//W3C//DTD SVG 1.1//EN" "http://www.w3.org/Graphics/SVG/1.1/DTD/svg11.dtd">
<svg version="1.1" id="Layer_1" xmlns="http://www.w3.org/2000/svg" xmlns:xlink="http://www.w3.org/1999/xlink" x="0px" y="0px"
	 width="29px" height="29px" viewBox="0 0 29 29" enable-background="new 0 0 29 29" xml:space="preserve">
<g transform="translate(5.000000, 7.000000)">
	<path fill="none" stroke="#757575" stroke-width="1.3685" stroke-miterlimit="10" d="M9.506-3.447C2.319-3.447-3.5,1.281-3.5,7.11
		c0,2.102,0.759,4.058,2.06,5.701c0.051,0.051,0.145,0.188,0.206,0.279c0.127,0.209,0.207,0.439,0.207,0.692
		c0,0.096-1.212,3.968-1.212,3.968c-0.088,0.301,0.142,0.609,0.514,0.686c0.054,0.014,0.109,0.014,0.163,0.014
		c0.087,0,0.169-0.014,0.25-0.035l0.107-0.039l3.428-1.506c0.061-0.026,0.611-0.239,0.678-0.266
		c0.231-0.084,0.487-0.125,0.759-0.125c0.245,0,0.481,0.035,0.698,0.103c0.006,0,0.013,0,0.013,0.008
		c0.035,0.017,0.068,0.021,0.102,0.034c1.565,0.541,3.279,0.704,5.088,0.704C16.743,17.325,22.5,12.939,22.5,7.11
		C22.514,1.281,16.688-3.447,9.506-3.447z"/>
</g>
<g>
	<path fill="#757575" d="M8.449,15.089c-0.218-0.218-0.328-0.457-0.328-0.712c0-0.276,0.119-0.526,0.361-0.755
		c0.236-0.228,0.597-0.352,1.075-0.371h3.462V9.217c0.103-0.364,0.271-0.64,0.499-0.822c0.229-0.184,0.49-0.274,0.781-0.274
		c0.269,0,0.524,0.083,0.764,0.247c0.238,0.165,0.412,0.421,0.516,0.769v4.114h4.146c0.396,0.091,0.688,0.243,0.875,0.454
		c0.188,0.211,0.281,0.434,0.281,0.672c0,0.255-0.105,0.484-0.312,0.686c-0.209,0.201-0.52,0.349-0.935,0.439h-4.057v4.114
		c-0.022,0.42-0.161,0.735-0.422,0.944c-0.259,0.211-0.544,0.317-0.857,0.317c-0.291,0-0.562-0.095-0.811-0.289
		c-0.25-0.19-0.407-0.489-0.469-0.892v-4.196H9.463C9.005,15.445,8.667,15.311,8.449,15.089z"/>
</g>
</svg>
