<?xml version="1.0" encoding="utf-8"?>
<!-- Generator: Adobe Illustrator 15.0.0, SVG Export Plug-In . SVG Version: 6.00 Build 0)  -->
<!DOCTYPE svg PUBLIC "-//W3C//DTD SVG 1.1//EN" "http://www.w3.org/Graphics/SVG/1.1/DTD/svg11.dtd">
<svg version="1.1" id="Layer_1" xmlns="http://www.w3.org/2000/svg" xmlns:xlink="http://www.w3.org/1999/xlink" x="0px" y="0px"
	 width="100px" height="100px" viewBox="206 206 100 100" enable-background="new 206 206 100 100" xml:space="preserve">
<g>
	<path fill="#37404D" d="M298.106,229.653h-16.542l-9.617-9.64c-0.012-0.012-0.021-0.02-0.031-0.031l-0.018-0.016l0,0
		c-1.445-1.43-3.43-2.312-5.623-2.312h-20c-2.324,0-4.396,1.004-5.859,2.586l-0.008-0.023l-9.418,9.438h-16.882
		c-4.418,0-8,3.582-8,8v48c0,4.417,3.582,7.999,8,7.999h83.998c4.42,0,8.002-3.582,8.002-7.999v-48
		C306.108,233.235,302.526,229.653,298.106,229.653z M302.108,285.652c0,2.203-1.797,4-4.002,4h-83.998c-2.205,0-4-1.797-4-4v-48
		c0-2.207,1.795-4,4-4h16.882h1.658l1.174-1.175l4.842-4.852l0.098,0.293l4.592-4.965c0.777-0.84,1.814-1.301,2.922-1.301h20
		c1.057,0,2.057,0.41,2.84,1.184l9.617,9.641l1.172,1.176h1.66h16.542c2.205,0,4.002,1.793,4.002,4V285.652L302.108,285.652z"/>
	<path fill="#37404D" d="M256.107,233.653c-14.359,0-26,11.637-26,25.996c0,14.359,11.641,26.004,26,26.004
		c14.359,0,26-11.645,26-26.004C282.107,245.29,270.467,233.653,256.107,233.653z M256.107,281.652c-12.13,0-22-9.871-22-22.004
		c0-12.128,9.869-21.996,22-21.996c12.131,0,22,9.867,22,21.996C278.107,271.781,268.238,281.652,256.107,281.652z"/>
	<path fill="#37404D" d="M256.107,241.653c-9.943,0-18,8.055-18,17.996c0,9.941,8.056,18.004,18,18.004s18-8.062,18-18.004
		C274.107,249.708,266.051,241.653,256.107,241.653z M256.107,273.652c-7.719,0-14-6.285-14-14.004c0-7.718,6.281-13.996,14-13.996
		s14,6.277,14,13.996C270.107,267.367,263.826,273.652,256.107,273.652z"/>
</g>
</svg>
