<?xml version="1.0" encoding="utf-8"?>
<!-- Generator: Adobe Illustrator 15.0.0, SVG Export Plug-In . SVG Version: 6.00 Build 0)  -->
<!DOCTYPE svg PUBLIC "-//W3C//DTD SVG 1.1//EN" "http://www.w3.org/Graphics/SVG/1.1/DTD/svg11.dtd">
<svg version="1.1" id="Layer_1" xmlns="http://www.w3.org/2000/svg" xmlns:xlink="http://www.w3.org/1999/xlink" x="0px" y="0px"
	 width="29px" height="29px" viewBox="0 0 29 29" enable-background="new 0 0 29 29" xml:space="preserve">
<g id="slice" transform="translate(215.000000, 119.000000)">
</g>
<path fill="#686871" d="M21.423,1.744H7.575c-3.22,0-5.831,2.611-5.831,5.831v13.848c0,3.223,2.611,5.833,5.831,5.833h13.848
	c3.222,0,5.833-2.61,5.833-5.833V7.575C27.256,4.355,24.645,1.744,21.423,1.744 M19.057,15.409h-3.647v3.647
	c0,0.501-0.405,0.907-0.913,0.907c-0.499,0-0.908-0.406-0.908-0.907v-3.647H9.944c-0.505,0-0.913-0.405-0.913-0.912
	c0-0.501,0.408-0.908,0.913-0.908h3.644V9.944c0-0.505,0.409-0.913,0.908-0.913c0.508,0,0.913,0.408,0.913,0.913v3.645h3.647
	c0.501,0,0.907,0.407,0.907,0.908C19.964,15.004,19.558,15.409,19.057,15.409"/>
</svg>
