<?xml version="1.0" encoding="utf-8"?>
<!-- Generator: Adobe Illustrator 15.0.0, SVG Export Plug-In . SVG Version: 6.00 Build 0)  -->
<!DOCTYPE svg PUBLIC "-//W3C//DTD SVG 1.1//EN" "http://www.w3.org/Graphics/SVG/1.1/DTD/svg11.dtd">
<svg version="1.1" id="Layer_1" xmlns="http://www.w3.org/2000/svg" xmlns:xlink="http://www.w3.org/1999/xlink" x="0px" y="0px"
	 width="29px" height="29px" viewBox="0 0 29 29" enable-background="new 0 0 29 29" xml:space="preserve">
<path fill="#8E8E8E" d="M23.2,0.001H5.8c-3.203,0-5.8,2.598-5.8,5.8V23.2c0,3.2,2.597,5.799,5.8,5.799h17.4
	c3.2,0,5.8-2.599,5.8-5.799V5.801C29,2.599,26.402,0.001,23.2,0.001z"/>
<path fill="#FFFFFF" d="M14.656,9.238c0.579-0.82-0.049-0.845-0.145-0.845l0,0l0,0c-0.121,0-0.725,0.049-0.145,0.845l-0.29,1.304
	h-2.896V9.601c0-0.193,0.096-0.387,0.241-0.507c0.845-0.7,1.786-1.158,1.954-1.255c0.024,0,0.024-0.024,0.024-0.049V6.463
	c-0.169-0.12-0.266-0.289-0.266-0.507v-1.23c0-0.772,0.628-1.376,1.376-1.376l0,0c0.772,0,1.375,0.628,1.375,1.376v1.23
	c0,0.218-0.12,0.41-0.265,0.507c0,0,0,1.11,0,1.327c0,0.024,0.023,0.049,0.023,0.049c0.193,0.097,1.11,0.555,1.955,1.255
	c0.145,0.12,0.241,0.313,0.241,0.507v0.941h-2.896L14.656,9.238z M23.827,22.15c-0.024,0-0.024-0.023-0.024-0.048
	c0-0.218,0-1.327,0-1.327c0.17-0.121,0.266-0.29,0.266-0.508v-1.23c0-0.771-0.627-1.375-1.375-1.375l0,0
	c-0.772,0-1.376,0.627-1.376,1.375v1.23c0,0.218,0.121,0.41,0.266,0.508v1.327c0,0.024-0.024,0.048-0.024,0.048
	c-0.217,0.072-1.134,0.555-1.979,1.256c-0.146,0.12-0.242,0.312-0.242,0.506v0.941h2.896l0.29-1.303
	c-0.579-0.82,0.048-0.846,0.145-0.846l0,0l0,0c0.121,0,0.724,0.049,0.145,0.846l0.29,1.303H26v-0.941
	c0-0.193-0.097-0.386-0.242-0.506C24.938,22.705,24.021,22.223,23.827,22.15z M11.374,24.081c-0.241-0.097-0.507,0-0.627,0.241
	c-0.097,0.242,0,0.508,0.241,0.628c0.048,0.024,0.12,0.048,0.193,0.048c0.192,0,0.361-0.096,0.434-0.266
	C11.712,24.443,11.592,24.178,11.374,24.081z M14.512,24.732c-0.266,0-0.459,0.218-0.459,0.459c0,0.266,0.193,0.459,0.459,0.459l0,0
	c0.266,0,0.459-0.218,0.459-0.459S14.777,24.732,14.512,24.732z M22.645,16.624c0.024,0,0.049,0,0.049,0
	c0.266-0.024,0.434-0.266,0.41-0.507c-0.024-0.266-0.266-0.435-0.507-0.41c-0.266,0.023-0.435,0.266-0.41,0.506
	C22.234,16.455,22.428,16.624,22.645,16.624z M17.649,24.081L17.649,24.081c-0.242,0.097-0.338,0.386-0.242,0.628
	c0.073,0.169,0.242,0.266,0.411,0.266c0.072,0,0.145-0.024,0.192-0.049c0.241-0.096,0.338-0.386,0.241-0.627
	C18.156,24.081,17.891,23.961,17.649,24.081z M21.607,13.39c0.072,0,0.169-0.024,0.241-0.072c0.217-0.121,0.289-0.41,0.169-0.628
	c-0.121-0.217-0.41-0.289-0.628-0.169c-0.217,0.121-0.289,0.41-0.169,0.628C21.293,13.317,21.438,13.39,21.607,13.39z M9.443,9.986
	c-0.217,0.146-0.266,0.435-0.097,0.652c0.097,0.12,0.241,0.192,0.362,0.192c0.097,0,0.193-0.023,0.29-0.097
	c0.217-0.145,0.265-0.434,0.096-0.651C9.926,9.89,9.637,9.842,9.443,9.986z M19.725,10.662c0.145-0.217,0.097-0.507-0.097-0.651
	c-0.217-0.145-0.507-0.097-0.651,0.097c-0.145,0.217-0.097,0.507,0.097,0.651c0.072,0.049,0.169,0.097,0.265,0.097
	C19.483,10.855,19.628,10.783,19.725,10.662z M5.896,16.093L5.896,16.093c-0.023,0.266,0.169,0.483,0.41,0.531
	c0.024,0,0.024,0,0.049,0c0.241,0,0.458-0.169,0.482-0.411l0,0l0,0c0.024-0.265-0.169-0.482-0.41-0.506
	C6.161,15.635,5.92,15.827,5.896,16.093L5.896,16.093L5.896,16.093z M7.03,12.666c-0.121,0.217-0.049,0.507,0.169,0.651
	c0.072,0.048,0.145,0.072,0.217,0.072c0.169,0,0.314-0.072,0.41-0.241c0.121-0.218,0.049-0.507-0.169-0.628
	C7.44,12.376,7.15,12.448,7.03,12.666z M7.488,22.15c-0.023,0-0.023-0.023-0.023-0.048v-1.327c0.169-0.121,0.266-0.29,0.266-0.508
	v-1.23c0-0.771-0.628-1.375-1.376-1.375l0,0c-0.772,0-1.376,0.627-1.376,1.375v1.23c0,0.218,0.121,0.41,0.266,0.508
	c0,0,0,1.109,0,1.327c0,0.024-0.024,0.048-0.024,0.048c-0.217,0.072-1.134,0.555-1.979,1.256C3.097,23.526,3,23.719,3,23.912v0.941
	h2.896l0.29-1.303c-0.579-0.82,0.048-0.846,0.145-0.846l0,0l0,0c0.121,0,0.725,0.049,0.145,0.846l0.29,1.303h2.896v-0.941
	c0-0.193-0.097-0.386-0.242-0.506C8.599,22.705,7.682,22.223,7.488,22.15z M17.504,20.558c0,0.338-0.266,0.628-0.627,0.628h-4.73
	c-0.338,0-0.627-0.266-0.627-0.628v-3.403c0-0.338,0.265-0.627,0.627-0.627h0.049v-0.82c0-1.279,1.037-2.342,2.34-2.342
	c1.304,0,2.342,1.038,2.342,2.342v0.82H16.9c0.338,0,0.628,0.266,0.628,0.627v3.403H17.504z M15.115,18.53
	c0-0.29-0.193-0.507-0.482-0.556c-0.242-0.047-0.531,0.098-0.628,0.339c-0.121,0.241-0.048,0.53,0.192,0.7
	c0.049,0.023,0.049,0.072,0.049,0.12c0,0.241,0,0.507,0,0.748l0,0c0,0.218,0.217,0.362,0.435,0.241
	c0.097-0.048,0.145-0.145,0.145-0.241l0,0c0-0.241,0-0.507,0-0.748c0-0.048,0.024-0.097,0.048-0.12
	C15.043,18.893,15.115,18.724,15.115,18.53z M15.839,15.73c0-0.724-0.579-1.303-1.304-1.303c-0.724,0-1.303,0.579-1.303,1.303v0.82
	h2.631v-0.82H15.839z"/>
</svg>
