<?xml version="1.0" encoding="utf-8"?>
<!-- Generator: Adobe Illustrator 15.0.0, SVG Export Plug-In . SVG Version: 6.00 Build 0)  -->
<!DOCTYPE svg PUBLIC "-//W3C//DTD SVG 1.1//EN" "http://www.w3.org/Graphics/SVG/1.1/DTD/svg11.dtd">
<svg version="1.1" id="Layer_1" xmlns="http://www.w3.org/2000/svg" xmlns:xlink="http://www.w3.org/1999/xlink" x="0px" y="0px"
	 width="29px" height="29px" viewBox="0 0 29 29" enable-background="new 0 0 29 29" xml:space="preserve">
<path fill="#8E8E93" d="M6,0h17c3.313,0,6,2.687,6,6v17c0,3.313-2.687,6-6,6H6c-3.313,0-6-2.687-6-6V6C0,2.687,2.687,0,6,0z"/>
<g transform="translate(4.000000, 4.000000)">
	<g>
		<path fill="#FFFFFF" d="M-23.375,0h-0.01c0,0,0,0-0.005,0h-0.01c-5.79,0.015-10.475,4.71-10.475,10.5S-29.19,20.984-23.4,21h0.01
			h0.005h0.01c5.801,0,10.5-4.699,10.5-10.5C-12.875,4.7-17.574,0-23.375,0L-23.375,0z M-23.375,20.162h-0.01c0,0,0,0-0.005,0h-0.01
			c-5.32-0.016-9.637-4.336-9.637-9.662c0-5.326,4.311-9.647,9.637-9.657h0.01h0.005h0.01c5.336,0,9.662,4.327,9.662,9.662
			C-13.713,15.836-18.039,20.162-23.375,20.162L-23.375,20.162z"/>
		<path fill="#FFFFFF" d="M-20.028,6.25c-0.944,0.227-1.918,0.363-2.923,0.394v3.438h3.412C-19.568,8.663-19.746,7.375-20.028,6.25
			L-20.028,6.25z"/>
		<path fill="#FFFFFF" d="M-22.956,1.742v4.134c0.935-0.03,1.843-0.151,2.716-0.363C-20.901,3.423-21.932,2.049-22.956,1.742
			L-22.956,1.742z"/>
		<path fill="#FFFFFF" d="M-26.535,5.507c0.883,0.212,1.797,0.338,2.736,0.369V1.731C-24.824,2.029-25.869,3.402-26.535,5.507
			L-26.535,5.507z"/>
		<path fill="#FFFFFF" d="M-17.085,4.311c-1.142-1.161-2.601-2.009-4.235-2.398c0.747,0.772,1.373,1.954,1.822,3.397
			C-18.655,5.053-17.848,4.72-17.085,4.311L-17.085,4.311z"/>
		<path fill="#FFFFFF" d="M-18.766,10.081h4.205c-0.092-1.958-0.823-3.756-1.994-5.179c-0.863,0.474-1.777,0.863-2.731,1.151
			C-18.979,7.264-18.797,8.632-18.766,10.081L-18.766,10.081z"/>
		<path fill="#FFFFFF" d="M-27.237,10.081h3.443V6.643c-1.015-0.03-1.999-0.167-2.948-0.398C-27.03,7.37-27.207,8.663-27.237,10.081
			L-27.237,10.081z"/>
		<path fill="#FFFFFF" d="M-19.539,10.919h-3.417v3.433c1.005,0.03,1.983,0.162,2.928,0.395
			C-19.746,13.625-19.568,12.332-19.539,10.919L-19.539,10.919z"/>
		<path fill="#FFFFFF" d="M-26.742,14.75c0.949-0.232,1.934-0.368,2.948-0.398v-3.433h-3.443
			C-27.207,12.338-27.03,13.63-26.742,14.75L-26.742,14.75z"/>
		<path fill="#FFFFFF" d="M-23.794,19.264v-4.145c-0.939,0.03-1.858,0.156-2.741,0.368C-25.869,17.593-24.824,18.971-23.794,19.264
			L-23.794,19.264z"/>
		<path fill="#FFFFFF" d="M-21.32,19.087c1.635-0.394,3.094-1.237,4.24-2.403c-0.762-0.408-1.57-0.742-2.413-0.999
			C-19.942,17.133-20.573,18.31-21.32,19.087L-21.32,19.087z"/>
		<path fill="#FFFFFF" d="M-25.46,1.923c-1.62,0.394-3.069,1.237-4.205,2.393c0.757,0.404,1.555,0.737,2.388,0.99
			C-26.828,3.867-26.202,2.696-25.46,1.923L-25.46,1.923z"/>
		<path fill="#FFFFFF" d="M-19.286,14.947c0.959,0.288,1.873,0.677,2.736,1.15c1.171-1.423,1.903-3.221,1.993-5.179h-4.205
			C-18.797,12.367-18.979,13.73-19.286,14.947L-19.286,14.947z"/>
		<path fill="#FFFFFF" d="M-22.956,15.119v4.139c1.024-0.307,2.055-1.681,2.716-3.775C-21.113,15.271-22.021,15.149-22.956,15.119
			L-22.956,15.119z"/>
		<path fill="#FFFFFF" d="M-27.484,6.048c-0.949-0.288-1.857-0.672-2.71-1.146c-1.171,1.423-1.903,3.221-1.994,5.179h4.185
			C-27.979,8.627-27.792,7.259-27.484,6.048L-27.484,6.048z"/>
		<path fill="#FFFFFF" d="M-28.009,10.919h-4.185c0.091,1.958,0.823,3.756,1.994,5.179c0.854-0.469,1.762-0.857,2.711-1.146
			C-27.792,13.74-27.979,12.373-28.009,10.919L-28.009,10.919z"/>
		<path fill="#FFFFFF" d="M-29.67,16.684c1.136,1.156,2.584,2,4.21,2.393c-0.742-0.771-1.368-1.948-1.817-3.387
			C-28.11,15.947-28.913,16.28-29.67,16.684L-29.67,16.684z"/>
	</g>
</g>
<path fill="#FFFFFF" d="M22.527,17.272L13.56,8.304C13.868,8.272,14.183,8.25,14.5,8.25c5.523,0,10,5,10,6.25
	C24.501,15.006,23.761,16.122,22.527,17.272z M24.13,22.379c0.482,0.483,0.482,1.267,0,1.751c-0.486,0.483-1.268,0.483-1.753,0
	l-4.131-4.131c-1.158,0.456-2.42,0.752-3.746,0.752c-5.523,0-10-5.105-10-6.251c0-0.734,1.555-2.751,3.948-4.299L4.871,6.622
	c-0.483-0.484-0.483-1.265,0-1.75c0.483-0.484,1.267-0.484,1.75,0L24.13,22.379z M16.119,17.872l-4.991-4.993
	c-0.239,0.49-0.378,1.038-0.378,1.621c0,2.073,1.678,3.751,3.75,3.751C15.084,18.251,15.631,18.111,16.119,17.872z"/>
</svg>
