<?xml version="1.0" encoding="utf-8"?>
<!-- Generator: Adobe Illustrator 15.0.0, SVG Export Plug-In . SVG Version: 6.00 Build 0)  -->
<!DOCTYPE svg PUBLIC "-//W3C//DTD SVG 1.1//EN" "http://www.w3.org/Graphics/SVG/1.1/DTD/svg11.dtd">
<svg version="1.1" id="Layer_1" xmlns="http://www.w3.org/2000/svg" xmlns:xlink="http://www.w3.org/1999/xlink" x="0px" y="0px"
	 width="29px" height="29px" viewBox="0 0 29 29" enable-background="new 0 0 29 29" xml:space="preserve">
<path fill="#8E8E93" d="M6,0h17c3.312,0,6,2.687,6,6v17c0,3.312-2.688,6-6,6H6c-3.313,0-6-2.688-6-6V6C0,2.687,2.687,0,6,0z"/>
<g>
	<g>
		<path fill="#FFFFFF" d="M10.421,9.786c-3.823,0-6.921,2.677-6.921,5.979c0,2.092,1.245,3.931,3.127,4.998l-0.003,0.001
			c0,0-0.845,2.014-2.09,2.519c-0.191,0.264,0.027,0.794,1.22,0.769c1.193-0.026,3.335-0.89,4.106-2.327
			c0.001-0.003,0.002-0.003,0.002-0.005c0.185,0.014,0.369,0.025,0.558,0.025c3.822,0,6.922-2.679,6.922-5.98
			C17.342,12.463,14.244,9.786,10.421,9.786z"/>
	</g>
	<g>
		<path fill="#FFFFFF" d="M22.883,20.108l-0.092-0.001c-1.254-0.027-3.384-0.845-4.346-2.315c-0.103,0.006-0.207,0.009-0.312,0.009
			c-4.062,0-7.368-2.882-7.368-6.426c0-3.544,3.306-6.426,7.368-6.426c4.061,0,7.366,2.882,7.366,6.426
			c0,2.054-1.112,3.961-2.997,5.171c0.323,0.632,0.962,1.64,1.684,1.933l0.119,0.047l0.074,0.105
			c0.171,0.237,0.192,0.549,0.058,0.815C24.311,19.693,23.941,20.108,22.883,20.108z M19.137,17.213
			c0.715,1.206,2.598,1.978,3.672,2l0.073,0.448v-0.447c0.304,0,0.501-0.041,0.618-0.088c-0.973-0.599-1.649-1.868-1.889-2.372
			l-0.872-0.218l0.966-0.552c1.817-1.032,2.901-2.756,2.901-4.609c0-3.051-2.903-5.533-6.473-5.533
			c-3.571,0-6.476,2.481-6.476,5.533c0,3.049,2.905,5.532,6.476,5.532c0.177,0,0.351-0.011,0.525-0.022l0.479-0.034L19.137,17.213
			L19.137,17.213z"/>
	</g>
</g>
</svg>
