<?xml version="1.0" encoding="utf-8"?>
<!-- Generator: Adobe Illustrator 15.0.0, SVG Export Plug-In . SVG Version: 6.00 Build 0)  -->
<!DOCTYPE svg PUBLIC "-//W3C//DTD SVG 1.1//EN" "http://www.w3.org/Graphics/SVG/1.1/DTD/svg11.dtd">
<svg version="1.1" id="Layer_1" xmlns="http://www.w3.org/2000/svg" xmlns:xlink="http://www.w3.org/1999/xlink" x="0px" y="0px"
	 width="24px" height="24px" viewBox="0 0 24 24" enable-background="new 0 0 24 24" xml:space="preserve">
<g>
	<path fill="#757575" d="M18.412,16.802c-0.071-0.078-0.173-0.124-0.279-0.124h-5.563c-0.107,0-0.208,0.046-0.281,0.124
		c-0.071,0.079-0.107,0.184-0.098,0.29l0.506,5.563C12.715,22.851,12.879,23,13.075,23h4.552c0.195,0,0.359-0.149,0.378-0.345
		l0.506-5.563C18.52,16.985,18.484,16.881,18.412,16.802z M17.487,19.966h-4.272l-0.23-2.529h4.732L17.487,19.966z"/>
	<path fill="#757575" d="M10.542,8.32c-0.078-0.074-0.17-0.163-0.218-0.218c0.004-0.061,0.013-0.142,0.022-0.239
		c0.059-0.62,0.167-1.774-0.101-2.579c-0.149-0.449-0.221-1.145-0.256-1.71c0.106-0.067,0.178-0.185,0.178-0.32L10.04,1.379
		C10.04,1.17,9.87,1,9.661,1H7.638C7.428,1,7.258,1.17,7.258,1.379L7.132,3.254c0,0.136,0.071,0.253,0.178,0.32
		C7.275,4.14,7.203,4.835,7.053,5.284C6.785,6.089,6.894,7.243,6.953,7.863C6.962,7.96,6.97,8.042,6.975,8.103
		C6.926,8.158,6.833,8.247,6.756,8.32c-0.474,0.453-1.268,1.212-1.268,2.441c0,1.533,0.297,11.449,0.31,11.87
		C5.804,22.837,5.972,23,6.177,23h2.472h2.472c0.205,0,0.373-0.163,0.379-0.368c0.013-0.421,0.31-10.337,0.31-11.87
		C11.81,9.532,11.017,8.773,10.542,8.32z M9.345,1.759L9.408,2.77H7.891l0.063-1.011H9.345z M10.753,22.241H8.649H6.545
		c-0.016-0.555-0.05-1.687-0.088-3.034h4.386C10.803,20.555,10.77,21.687,10.753,22.241z M11.048,11.115H6.25
		c-0.002-0.145-0.003-0.265-0.003-0.354c0-0.906,0.622-1.5,1.033-1.893c0.265-0.253,0.456-0.436,0.456-0.694
		c0-0.083-0.012-0.209-0.028-0.383C7.654,7.227,7.555,6.177,7.773,5.524C7.82,5.381,7.859,5.217,7.894,5.046H7.891V3.528h1.517
		v1.518H9.404c0.035,0.171,0.074,0.335,0.122,0.478c0.217,0.653,0.118,1.704,0.065,2.268c-0.017,0.174-0.028,0.3-0.028,0.384
		c0,0.258,0.191,0.44,0.456,0.694c0.412,0.393,1.033,0.987,1.033,1.893C11.051,10.851,11.05,10.971,11.048,11.115z"/>
</g>
</svg>
