<?xml version="1.0" encoding="utf-8"?>
<!-- Generator: Adobe Illustrator 15.0.0, SVG Export Plug-In . SVG Version: 6.00 Build 0)  -->
<!DOCTYPE svg PUBLIC "-//W3C//DTD SVG 1.1//EN" "http://www.w3.org/Graphics/SVG/1.1/DTD/svg11.dtd">
<svg version="1.1" id="Layer_1" xmlns="http://www.w3.org/2000/svg" xmlns:xlink="http://www.w3.org/1999/xlink" x="0px" y="0px"
	 width="29px" height="29px" viewBox="0 0 29 29" enable-background="new 0 0 29 29" xml:space="preserve">
<path fill="#8E8E93" d="M6,0h17c3.313,0,6,2.687,6,6v17c0,3.313-2.687,6-6,6H6c-3.313,0-6-2.687-6-6V6C0,2.687,2.687,0,6,0z"/>
<g>
	<path fill="#FFFFFF" d="M5,4v21h10.539V4H5z M12.092,8.704h2.149v2.333h-2.149V8.704z M9.059,8.704h2.149v2.333H9.059V8.704z
		 M6.025,8.704h2.149v2.333H6.025V8.704z M8.175,17.921H6.025v-2.334h2.149V17.921z M8.175,14.42H6.025v-2.333h2.149V14.42z
		 M8.175,7.537H6.026V5.204h2.148V7.537z M11.208,17.921H9.059v-2.334h2.149V17.921z M11.208,14.42H9.06v-2.333h2.148V14.42z
		 M11.208,7.537H9.06V5.204h2.148V7.537z M14.241,17.921h-2.149v-2.334h2.149V17.921z M14.241,14.42h-2.149v-2.333h2.149V14.42z
		 M14.242,7.537h-2.148V5.204h2.148V7.537z"/>
	<path fill="#FFFFFF" d="M15.85,11.199v13.793H26V11.199H15.85z M16.803,15.691h2.148v2.333h-2.148V15.691z M18.951,21.408h-2.148
		v-2.334h2.148V21.408z M18.951,14.524h-2.147v-2.333h2.147V14.524z M19.835,15.691h2.149v2.333h-2.149V15.691z M21.984,21.408
		h-2.149v-2.334h2.149V21.408z M21.984,14.524h-2.149v-2.333h2.149V14.524z M22.868,15.691h2.149v2.333h-2.149V15.691z
		 M25.018,21.408h-2.149v-2.334h2.149V21.408z M25.018,14.524h-2.148v-2.333h2.148V14.524z"/>
</g>
</svg>
