<?xml version="1.0" encoding="utf-8"?>
<!-- Generator: Adobe Illustrator 15.0.0, SVG Export Plug-In . SVG Version: 6.00 Build 0)  -->
<!DOCTYPE svg PUBLIC "-//W3C//DTD SVG 1.1//EN" "http://www.w3.org/Graphics/SVG/1.1/DTD/svg11.dtd">
<svg version="1.1" id="Layer_1" xmlns="http://www.w3.org/2000/svg" xmlns:xlink="http://www.w3.org/1999/xlink" x="0px" y="0px"
	 width="24px" height="24px" viewBox="0 0 24 24" enable-background="new 0 0 24 24" xml:space="preserve">
<g>
	<path fill="#757575" d="M13.516,0.971c-0.263-0.459-0.605-0.67-0.943-0.578c-0.54,0.148-1.072,1.046-1.045,2.717l0.135,8.235
		c0.002,0.131-0.102,0.238-0.231,0.241c-0.131,0.002-0.239-0.103-0.24-0.233l-0.107-6.486c-0.013-0.602-0.136-1.125-0.356-1.512l0,0
		c-0.281-0.492-0.704-0.729-1.105-0.619c-0.467,0.127-1.004,0.779-0.98,2.196l0.17,10.274c0.002,0.104,0.006,0.413-0.242,0.518
		c-0.358,0.149-0.786-0.292-1.819-1.357c-0.379-0.39-0.809-0.83-1.294-1.301c-0.919-0.888-2.399-0.937-3.109-0.388
		c-0.395,0.307-0.452,0.734-0.168,1.231c0.116,0.204,0.258,0.447,0.507,0.628c2.748,1.99,5.401,9.297,11.859,9.085
		c3.71-0.12,5.546-2.954,5.452-8.6l-0.152-9.331c-0.011-0.614-0.134-1.145-0.358-1.538c-0.279-0.491-0.702-0.729-1.104-0.619
		c-0.463,0.126-0.997,0.77-0.979,2.174v0.001l0.091,5.537c0.003,0.131-0.102,0.238-0.232,0.24c-0.132,0.003-0.239-0.102-0.24-0.233
		l-0.092-5.538l0.001,0l0,0l-0.035-2.106c-0.017-1.08-0.259-1.722-0.456-2.069c-0.27-0.472-0.632-0.7-0.971-0.607
		c-0.521,0.143-1.033,1.023-1.016,2.672l0.127,7.732c0.002,0.131-0.103,0.239-0.231,0.242c-0.133,0.001-0.24-0.104-0.242-0.233
		l-0.137-8.279C13.949,1.961,13.712,1.317,13.516,0.971z"/>
</g>
</svg>
