<?xml version="1.0" encoding="utf-8"?>
<!-- Generator: Adobe Illustrator 15.0.0, SVG Export Plug-In . SVG Version: 6.00 Build 0)  -->
<!DOCTYPE svg PUBLIC "-//W3C//DTD SVG 1.1//EN" "http://www.w3.org/Graphics/SVG/1.1/DTD/svg11.dtd">
<svg version="1.1" id="Layer_1" xmlns="http://www.w3.org/2000/svg" xmlns:xlink="http://www.w3.org/1999/xlink" x="0px" y="0px"
	 width="24px" height="24px" viewBox="0 0 24 24" enable-background="new 0 0 24 24" xml:space="preserve">
<path fill="none" stroke="#757575" stroke-miterlimit="10" d="M12,2C6.486,2,2,6.485,2,11.999c0,0,0,0,0,0.001c0,0,0,0,0,0.001
	C2,17.515,6.486,22,12,22s10-4.486,10-10S17.514,2,12,2z M12.38,21.23v-1.414c0-0.21-0.17-0.38-0.38-0.38s-0.38,0.17-0.38,0.38
	v1.414c-4.793-0.194-8.656-4.058-8.851-8.852h1.415c0.209,0,0.379-0.17,0.379-0.379c0-0.21-0.17-0.38-0.379-0.38H2.769
	c0.195-4.794,4.058-8.656,8.851-8.852v1.415c0,0.209,0.17,0.38,0.38,0.38s0.38-0.171,0.38-0.38V2.769
	c4.794,0.195,8.656,4.058,8.852,8.852h-1.415c-0.209,0-0.38,0.17-0.38,0.38c0,0.209,0.171,0.379,0.38,0.379h1.415
	C21.036,17.173,17.174,21.036,12.38,21.23z"/>
<path fill="none" stroke="#757575" stroke-miterlimit="10" d="M16.128,6.686L9.499,9.63C9.496,9.632,9.493,9.634,9.49,9.636
	C9.485,9.638,9.48,9.642,9.475,9.645C9.392,9.688,9.329,9.762,9.297,9.851C9.295,9.855,9.293,9.861,9.291,9.866
	C9.29,9.87,9.288,9.872,9.287,9.876l-1.934,6.991c-0.039,0.142,0.007,0.292,0.118,0.389c0.07,0.061,0.159,0.092,0.248,0.092
	c0.052,0,0.104-0.011,0.154-0.032l6.629-2.945l0,0c0.002-0.001,0.003-0.002,0.004-0.002c0.05-0.023,0.094-0.057,0.129-0.097
	c0,0,0,0,0.001,0c0,0,0,0,0-0.001c0.029-0.034,0.052-0.076,0.067-0.12c0.002-0.006,0.005-0.011,0.007-0.017
	c0.001-0.003,0.003-0.006,0.003-0.009l1.935-6.991c0.039-0.142-0.007-0.293-0.118-0.389C16.418,6.648,16.262,6.626,16.128,6.686z"/>
<polygon fill="none" stroke="#757575" stroke-miterlimit="10" points="9.859,10.655 13.646,13.919 8.298,16.295 "/>
<polygon fill="#757575" stroke="#757575" stroke-miterlimit="10" points="10.354,10.08 14.142,13.344 15.701,7.705 "/>
</svg>
