<?xml version="1.0" encoding="utf-8"?>
<!-- Generator: Adobe Illustrator 15.0.0, SVG Export Plug-In . SVG Version: 6.00 Build 0)  -->
<!DOCTYPE svg PUBLIC "-//W3C//DTD SVG 1.1//EN" "http://www.w3.org/Graphics/SVG/1.1/DTD/svg11.dtd">
<svg version="1.1" id="Layer_1" xmlns="http://www.w3.org/2000/svg" xmlns:xlink="http://www.w3.org/1999/xlink" x="0px" y="0px"
	 width="24px" height="24px" viewBox="0 0 24 24" enable-background="new 0 0 24 24" xml:space="preserve">
<path fill="none" d="M0,0h24v24H0V0z"/>
<g>
	<path fill="#757575" d="M6.298,10.637c1.007,0,1.822-0.815,1.822-1.82c0-1.007-0.815-1.821-1.822-1.821
		c-1.005,0-1.821,0.814-1.821,1.821C4.478,9.821,5.293,10.637,6.298,10.637z"/>
	<path fill="#757575" d="M5.344,12.664h3.83c0.44,0,0.808-0.312,0.894-0.729c0.013-0.062,0.021-0.126,0.021-0.19V9.177
		c0-0.503-0.409-0.912-0.913-0.912S8.263,8.674,8.263,9.177v1.663H5.344c-0.504,0-0.912,0.409-0.912,0.913
		C4.433,12.256,4.841,12.664,5.344,12.664z"/>
	<path fill="#757575" d="M19.623,12.518c0-2.301-1.864-4.268-4.166-4.268h-5v4.414h9.162C19.622,12.615,19.623,12.567,19.623,12.518
		z"/>
	<path fill="#757575" d="M20.952,8.182c-0.578,0-1.047,0.47-1.047,1.048v3.975H4.094V6.617c0-0.579-0.468-1.047-1.047-1.047
		C2.469,5.57,2,6.038,2,6.617V18.43h2.094v-2.883h15.811v2.883H22v-9.2C22,8.651,21.53,8.182,20.952,8.182z"/>
</g>
</svg>
