<?xml version="1.0" encoding="utf-8"?>
<!-- Generator: Adobe Illustrator 15.0.0, SVG Export Plug-In . SVG Version: 6.00 Build 0)  -->
<!DOCTYPE svg PUBLIC "-//W3C//DTD SVG 1.1//EN" "http://www.w3.org/Graphics/SVG/1.1/DTD/svg11.dtd">
<svg version="1.1" id="Layer_1" xmlns="http://www.w3.org/2000/svg" xmlns:xlink="http://www.w3.org/1999/xlink" x="0px" y="0px"
	 width="29px" height="29px" viewBox="0 0 29 29" enable-background="new 0 0 29 29" xml:space="preserve">
<path fill="#8E8E93" d="M6,0h17c3.312,0,6,2.687,6,6v17c0,3.312-2.688,6-6,6H6c-3.313,0-6-2.688-6-6V6C0,2.687,2.687,0,6,0z"/>
<path fill="#FFFFFF" d="M5.617,24.828v0.297c0,0.996,1.057,1.801,2.361,1.801H21.28c1.304,0,2.36-0.805,2.36-1.801v-0.297H5.617z"/>
<path fill="#FFFFFF" d="M23.249,22.594H5.75c-0.69,0-1.25,0.426-1.25,0.953s0.56,0.955,1.25,0.955h17.5
	c0.692,0,1.251-0.428,1.251-0.955S23.941,22.594,23.249,22.594z"/>
<path fill="#FFFFFF" stroke="#FFFFFF" stroke-width="1.1178" stroke-miterlimit="10" d="M23.741,20.725
	c0-0.197-0.219-0.354-0.487-0.354c-0.128,0-0.24,0.037-0.328,0.096c-0.771,0.154-4.087,0.721-8.308-0.045
	c-4.589-0.838-8.119-0.189-8.875-0.027C5.481,20.4,5.271,20.559,5.271,20.75c0,0.195,0.219,0.354,0.487,0.354
	c0.048,0,0.095-0.006,0.138-0.018L5.904,21.1c0.036-0.01,3.671-0.867,8.479,0.008c1.719,0.314,3.29,0.418,4.62,0.418
	c2.604,0,4.295-0.398,4.402-0.426l-0.017-0.033C23.591,21.021,23.741,20.887,23.741,20.725z"/>
<path fill="#FFFFFF" d="M14.497,11.355c-5.255,0-9.514,3.251-9.514,7.264c0,0.15,0.008,0.297,0.019,0.441h18.991
	c0.011-0.145,0.02-0.291,0.02-0.441C24.013,14.607,19.753,11.355,14.497,11.355z"/>
<path fill="none" stroke="#FFFFFF" stroke-width="1.014" stroke-miterlimit="10" d="M14.902,2.074c0,0,1.96,1.565-0.049,3.477
	c-2.01,1.913-0.14,3.522-0.14,3.522"/>
<path fill="none" stroke="#FFFFFF" stroke-width="1.014" stroke-miterlimit="10" d="M18.475,2.074c0,0,1.96,1.565-0.049,3.477
	c-2.007,1.913-0.14,3.522-0.14,3.522"/>
<path fill="none" stroke="#FFFFFF" stroke-width="1.014" stroke-miterlimit="10" d="M11.327,2.074c0,0,1.96,1.565-0.046,3.477
	c-2.009,1.913-0.14,3.522-0.14,3.522"/>
</svg>
