<?xml version="1.0" encoding="utf-8"?>
<!-- Generator: Adobe Illustrator 15.0.0, SVG Export Plug-In . SVG Version: 6.00 Build 0)  -->
<!DOCTYPE svg PUBLIC "-//W3C//DTD SVG 1.1//EN" "http://www.w3.org/Graphics/SVG/1.1/DTD/svg11.dtd">
<svg version="1.1" id="Layer_1" xmlns="http://www.w3.org/2000/svg" xmlns:xlink="http://www.w3.org/1999/xlink" x="0px" y="0px"
	 width="24px" height="24px" viewBox="0 0 24 24" enable-background="new 0 0 24 24" xml:space="preserve">
<path fill="none" d="M0,0h24v24H0V0z"/>
<path fill="#757575" d="M-12.75,3.083h-16c-1.1,0-2,0.9-2,2v18l4-4h14c1.1,0,2-0.9,2-2v-12C-10.75,3.983-11.651,3.083-12.75,3.083z
	 M-12.75,17.083h-14l-2,2v-14h16V17.083z"/>
<g transform="translate(0.000000,245.000000) scale(0.100000,-0.100000)">
	<path fill="#757575" d="M146.807,2385.361c-1.67-0.503-3.408-0.962-3.916-1.104c-1.924-0.415-14.727-4.004-15.117-4.233
		c-0.234-0.142,0.244-0.923,1.084-1.758l1.406-1.47l3.555,1.064c1.934,0.547,5.205,1.558,7.227,2.202
		c2.021,0.64,4.004,1.201,4.434,1.201c1.104,0,6.328-3.96,6.895-5.249c0.361-0.786,0.361-1.978-0.049-4.375
		c-0.469-2.72-0.781-3.452-1.748-4.092c-1.025-0.659-1.201-0.659-1.377-0.098c-0.469,1.338-3.467,3.633-5.752,4.419
		c-5.156,1.753-10.469,0.869-20.547-3.359c-11.499-4.839-31.675-15.425-32.275-16.943c-0.874-2.256-4.736-4.785-8.745-5.757
		c-4.233-1.011-15.093-0.781-20.479,0.459c-1.016,0.234-1.89,0.415-1.987,0.415c-1.338,0.098-4.268,1.519-5.752,2.905
		c-2.944,2.671-6.123,2.158-9.111-1.523c-0.786-0.962-1.616-1.699-1.797-1.562c-0.186,0.093-1.655,0-3.271-0.278
		c-15.889-2.48-26.787-9.712-32.09-21.274C6.47,2323.027,5,2318.144,5,2317.168c0-0.176,1.064-0.361,2.344-0.361h2.349l-0.366-1.943
		c-0.449-2.568-0.449-9.619-0.049-12.52c2.026-12.891,12.393-24.16,25.42-27.676c3.862-1.045,11.65-1.27,15.649-0.459
		c8.335,1.768,15.747,6.465,20.996,13.408c2.021,2.627,4.741,7.9,5.2,10.215l0.376,1.494h5.239c5.669,0,5.479,0.078,5.894-2.686
		c0.42-2.939,2.393-6.113,5.342-8.535c1.011-0.811,4.609-2.559,5.991-2.842c0.356-0.078,1.562-0.352,2.666-0.586
		c1.797-0.41,13.169-0.391,17.119,0.078c0.879,0.098,3.501,0.332,5.762,0.459c2.305,0.195,4.98,0.381,5.977,0.508
		c1.025,0.117,3.516,0.342,5.537,0.518c6.494,0.518,10.137,2.256,12.568,6.084c1.338,2.021,3.877,8.877,4.404,11.865
		c0.107,0.752,0.654,3.418,1.162,5.928c0.869,4.434,1.25,6.465,1.66,8.984c0.371,2.451,1.104,6.865,1.836,10.728
		c0.381,2.222,0.83,4.8,0.957,5.762c0.166,0.923,0.391,2.344,0.479,3.086c0.137,0.786,0.322,1.885,0.4,2.529
		c0.156,1.064,0.967,6.172,1.396,8.745c0.498,3.003,0.635,4.106,0.918,6.455c0.176,1.382,0.352,2.573,0.449,2.661
		c0.049,0.059,3.008-4.692,6.543-10.586l6.387-10.728l-3.018-3.682c-3.994-4.829-7.363-10.586-7.881-13.496
		c0-0.176-0.234-0.635-0.459-1.045c-0.742-1.436-1.67-7.803-1.094-7.803c0.176,0,0.869,0.41,1.504,0.879l1.26,0.879v-4.922
		c0-5.566,0.254-7.441,1.562-11.191c1.514-4.463,3.311-7.637,6.25-11.309c2.5-3.135,7.139-6.729,11.318-8.848
		c5.352-2.725,8.672-3.408,15.85-3.408c4.404,0,6.201,0.225,8.975,1.045c8.232,2.539,14.6,7.188,19.287,14.102
		c4.365,6.445,6.143,12.754,5.791,20.85c-0.303,8.799-3.291,15.884-9.434,22.334c-3.066,3.271-5.693,5.249-9.609,7.231
		c-2.666,1.372-2.842,1.567-2.158,2.114c0.762,0.557,0.684,0.645-0.889,1.338c-5.186,2.168-13.174,3.13-18.867,2.344
		c-2.119-0.278-7.51-1.885-8.535-2.534c-0.449-0.322-0.82-0.132-1.416,0.786c-7.793,12.241-9.531,15.42-8.887,16.06
		c1.094,1.157,2.529,4.751,2.666,6.772c0.156,2.261-0.957,6.133-2.666,9.258c-1.113,2.026-1.572,2.388-3.623,3.135
		c-4.658,1.611-8.955,1.836-11.387,0.64l-1.562-0.786l-1.846,1.797c-5.293,5.117-6.299,6.025-6.611,5.991
		C149.932,2386.235,148.457,2385.82,146.807,2385.361z"/>
</g>
</svg>
