<?xml version="1.0" encoding="utf-8"?>
<!-- Generator: Adobe Illustrator 15.0.0, SVG Export Plug-In . SVG Version: 6.00 Build 0)  -->
<!DOCTYPE svg PUBLIC "-//W3C//DTD SVG 1.1//EN" "http://www.w3.org/Graphics/SVG/1.1/DTD/svg11.dtd">
<svg version="1.1" id="Layer_1" xmlns="http://www.w3.org/2000/svg" xmlns:xlink="http://www.w3.org/1999/xlink" x="0px" y="0px"
	 width="24px" height="24px" viewBox="0 0 24 24" enable-background="new 0 0 24 24" xml:space="preserve">
<path fill="#757575" d="M12.156,6.738c0.579-0.82-0.049-0.845-0.145-0.845l0,0l0,0c-0.121,0-0.725,0.049-0.145,0.845l-0.29,1.304
	H8.682V7.101c0-0.193,0.096-0.387,0.241-0.507c0.845-0.7,1.786-1.158,1.954-1.255c0.024,0,0.024-0.024,0.024-0.049V3.963
	c-0.169-0.12-0.266-0.289-0.266-0.507v-1.23c0-0.772,0.628-1.376,1.376-1.376l0,0c0.772,0,1.375,0.628,1.375,1.376v1.23
	c0,0.218-0.12,0.41-0.265,0.507c0,0,0,1.11,0,1.327c0,0.024,0.023,0.049,0.023,0.049c0.193,0.097,1.11,0.555,1.955,1.255
	c0.145,0.12,0.241,0.313,0.241,0.507v0.941h-2.896L12.156,6.738z M21.327,19.65c-0.024,0-0.024-0.023-0.024-0.048
	c0-0.218,0-1.327,0-1.327c0.17-0.121,0.266-0.29,0.266-0.508v-1.23c0-0.771-0.627-1.375-1.375-1.375l0,0
	c-0.772,0-1.376,0.627-1.376,1.375v1.23c0,0.218,0.121,0.41,0.266,0.508v1.327c0,0.024-0.024,0.048-0.024,0.048
	c-0.217,0.072-1.134,0.555-1.979,1.256c-0.146,0.12-0.242,0.312-0.242,0.506v0.941h2.896l0.29-1.303
	c-0.579-0.82,0.048-0.846,0.145-0.846l0,0l0,0c0.121,0,0.724,0.049,0.145,0.846l0.29,1.303H23.5v-0.941
	c0-0.193-0.097-0.386-0.242-0.506C22.438,20.205,21.521,19.723,21.327,19.65z M8.874,21.581c-0.241-0.097-0.507,0-0.627,0.241
	c-0.097,0.242,0,0.508,0.241,0.628c0.048,0.024,0.12,0.048,0.193,0.048c0.192,0,0.361-0.096,0.434-0.266
	C9.212,21.943,9.092,21.678,8.874,21.581z M12.012,22.232c-0.266,0-0.459,0.218-0.459,0.459c0,0.266,0.193,0.459,0.459,0.459l0,0
	c0.266,0,0.459-0.218,0.459-0.459S12.277,22.232,12.012,22.232z M20.145,14.124c0.024,0,0.049,0,0.049,0
	c0.266-0.024,0.434-0.266,0.41-0.507c-0.024-0.266-0.266-0.435-0.507-0.41c-0.266,0.023-0.435,0.266-0.41,0.506
	C19.734,13.955,19.928,14.124,20.145,14.124z M15.149,21.581L15.149,21.581c-0.242,0.097-0.338,0.386-0.242,0.628
	c0.073,0.169,0.242,0.266,0.411,0.266c0.072,0,0.145-0.024,0.192-0.049c0.241-0.096,0.338-0.386,0.241-0.627
	C15.656,21.581,15.391,21.461,15.149,21.581z M19.107,10.89c0.072,0,0.169-0.024,0.241-0.072c0.217-0.121,0.289-0.41,0.169-0.628
	c-0.121-0.217-0.41-0.289-0.628-0.169c-0.217,0.121-0.289,0.41-0.169,0.628C18.793,10.817,18.938,10.89,19.107,10.89z M6.943,7.486
	C6.727,7.632,6.678,7.921,6.847,8.139c0.097,0.12,0.241,0.192,0.362,0.192c0.097,0,0.193-0.023,0.29-0.097
	C7.716,8.09,7.764,7.801,7.595,7.583C7.426,7.39,7.137,7.342,6.943,7.486z M17.225,8.162c0.145-0.217,0.097-0.507-0.097-0.651
	c-0.217-0.145-0.507-0.097-0.651,0.097c-0.145,0.217-0.097,0.507,0.097,0.651c0.072,0.049,0.169,0.097,0.265,0.097
	C16.983,8.355,17.128,8.283,17.225,8.162z M3.396,13.593L3.396,13.593c-0.023,0.266,0.169,0.483,0.41,0.531c0.024,0,0.024,0,0.049,0
	c0.241,0,0.458-0.169,0.482-0.411l0,0l0,0c0.024-0.265-0.169-0.482-0.41-0.506C3.661,13.135,3.42,13.327,3.396,13.593L3.396,13.593
	L3.396,13.593z M4.53,10.166c-0.121,0.217-0.049,0.507,0.169,0.651c0.072,0.048,0.145,0.072,0.217,0.072
	c0.169,0,0.314-0.072,0.41-0.241c0.121-0.218,0.049-0.507-0.169-0.628C4.94,9.876,4.65,9.948,4.53,10.166z M4.988,19.65
	c-0.023,0-0.023-0.023-0.023-0.048v-1.327c0.169-0.121,0.266-0.29,0.266-0.508v-1.23c0-0.771-0.628-1.375-1.376-1.375l0,0
	c-0.772,0-1.376,0.627-1.376,1.375v1.23c0,0.218,0.121,0.41,0.266,0.508c0,0,0,1.109,0,1.327c0,0.024-0.024,0.048-0.024,0.048
	c-0.217,0.072-1.134,0.555-1.979,1.256C0.597,21.026,0.5,21.219,0.5,21.412v0.941h2.896l0.29-1.303
	c-0.579-0.82,0.048-0.846,0.145-0.846l0,0l0,0c0.121,0,0.725,0.049,0.145,0.846l0.29,1.303h2.896v-0.941
	c0-0.193-0.097-0.386-0.242-0.506C6.099,20.205,5.182,19.723,4.988,19.65z M15.004,18.058c0,0.338-0.266,0.628-0.627,0.628h-4.73
	c-0.338,0-0.627-0.266-0.627-0.628v-3.403c0-0.338,0.265-0.627,0.627-0.627h0.049v-0.82c0-1.279,1.037-2.342,2.34-2.342
	c1.304,0,2.342,1.038,2.342,2.342v0.82H14.4c0.338,0,0.628,0.266,0.628,0.627v3.403H15.004z M12.615,16.03
	c0-0.29-0.193-0.507-0.482-0.556c-0.242-0.047-0.531,0.098-0.628,0.339c-0.121,0.241-0.048,0.53,0.192,0.7
	c0.049,0.023,0.049,0.072,0.049,0.12c0,0.241,0,0.507,0,0.748l0,0c0,0.218,0.217,0.362,0.435,0.241
	c0.097-0.048,0.145-0.145,0.145-0.241l0,0c0-0.241,0-0.507,0-0.748c0-0.048,0.024-0.097,0.048-0.12
	C12.543,16.393,12.615,16.224,12.615,16.03z M13.339,13.23c0-0.724-0.579-1.303-1.304-1.303c-0.724,0-1.303,0.579-1.303,1.303v0.82
	h2.631v-0.82H13.339z"/>
</svg>
