<?xml version="1.0" encoding="utf-8"?>
<!-- Generator: Adobe Illustrator 15.0.0, SVG Export Plug-In . SVG Version: 6.00 Build 0)  -->
<!DOCTYPE svg PUBLIC "-//W3C//DTD SVG 1.1//EN" "http://www.w3.org/Graphics/SVG/1.1/DTD/svg11.dtd">
<svg version="1.1" id="Layer_1" xmlns="http://www.w3.org/2000/svg" xmlns:xlink="http://www.w3.org/1999/xlink" x="0px" y="0px"
	 width="29px" height="29px" viewBox="0 0 29 29" enable-background="new 0 0 29 29" xml:space="preserve">
<path fill="#8E8E93" d="M6,0h17c3.312,0,6,2.687,6,6v17c0,3.312-2.688,6-6,6H6c-3.313,0-6-2.688-6-6V6C0,2.687,2.687,0,6,0z"/>
<g>
	<path fill="none" stroke="#FFFFFF" stroke-miterlimit="10" d="M14.5,4.5c-5.514,0-10,4.485-10,9.999c0,0,0,0,0,0.001
		c0,0,0,0,0,0.001c0,5.514,4.486,9.999,10,9.999s10-4.486,10-10S20.014,4.5,14.5,4.5z M14.88,23.73v-1.414
		c0-0.21-0.17-0.38-0.38-0.38s-0.38,0.17-0.38,0.38v1.414c-4.793-0.194-8.656-4.058-8.851-8.852h1.415
		c0.209,0,0.379-0.17,0.379-0.379c0-0.21-0.17-0.38-0.379-0.38H5.269c0.195-4.794,4.058-8.656,8.851-8.852v1.415
		c0,0.209,0.17,0.38,0.38,0.38s0.38-0.171,0.38-0.38V5.269c4.794,0.195,8.656,4.058,8.852,8.852h-1.415
		c-0.209,0-0.38,0.17-0.38,0.38c0,0.209,0.171,0.379,0.38,0.379h1.415C23.536,19.673,19.674,23.536,14.88,23.73z"/>
	<path fill="none" stroke="#FFFFFF" stroke-miterlimit="10" d="M18.628,9.186l-6.629,2.944c-0.003,0.002-0.006,0.004-0.008,0.006
		c-0.005,0.002-0.01,0.006-0.015,0.009c-0.083,0.044-0.146,0.117-0.178,0.206c-0.002,0.005-0.004,0.011-0.006,0.016
		c-0.001,0.004-0.003,0.006-0.004,0.01l-1.934,6.991c-0.039,0.142,0.007,0.292,0.118,0.389c0.07,0.061,0.159,0.092,0.248,0.092
		c0.052,0,0.104-0.011,0.154-0.032l6.629-2.945l0,0c0.002-0.001,0.003-0.002,0.004-0.002c0.05-0.023,0.094-0.057,0.129-0.097
		c0,0,0,0,0.001,0c0,0,0,0,0-0.001c0.029-0.034,0.052-0.076,0.067-0.12c0.002-0.006,0.005-0.011,0.007-0.017
		c0.001-0.003,0.003-0.006,0.003-0.009l1.935-6.991c0.039-0.142-0.007-0.293-0.118-0.389C18.918,9.148,18.762,9.126,18.628,9.186z"
		/>
	<polygon fill="none" stroke="#FFFFFF" stroke-miterlimit="10" points="12.359,13.155 16.146,16.419 10.798,18.795 	"/>
	<polygon fill="#FFFFFF" stroke="#FFFFFF" stroke-miterlimit="10" points="12.854,12.58 16.642,15.844 18.201,10.205 	"/>
</g>
</svg>
