<?xml version="1.0" encoding="utf-8"?>
<!-- Generator: Adobe Illustrator 15.0.0, SVG Export Plug-In . SVG Version: 6.00 Build 0)  -->
<!DOCTYPE svg PUBLIC "-//W3C//DTD SVG 1.1//EN" "http://www.w3.org/Graphics/SVG/1.1/DTD/svg11.dtd">
<svg version="1.1" id="Layer_1" xmlns="http://www.w3.org/2000/svg" xmlns:xlink="http://www.w3.org/1999/xlink" x="0px" y="0px"
	 width="29px" height="29px" viewBox="0 0 29 29" enable-background="new 0 0 29 29" xml:space="preserve">
<path fill="#8E8E93" d="M6,0h17c3.312,0,6,2.687,6,6v17c0,3.312-2.688,6-6,6H6c-3.313,0-6-2.688-6-6V6C0,2.687,2.687,0,6,0z"/>
<g>
	<path fill="#FFFFFF" d="M8.798,13.137c1.007,0,1.822-0.816,1.822-1.821c0-1.006-0.815-1.821-1.822-1.821
		c-1.005,0-1.821,0.815-1.821,1.821C6.978,12.321,7.793,13.137,8.798,13.137z"/>
	<path fill="#FFFFFF" d="M7.844,15.164h3.83c0.44,0,0.808-0.313,0.894-0.729c0.013-0.062,0.021-0.125,0.021-0.19v-2.568
		c0-0.503-0.409-0.912-0.913-0.912s-0.913,0.409-0.913,0.912v1.663H7.844c-0.504,0-0.912,0.409-0.912,0.913
		C6.933,14.756,7.341,15.164,7.844,15.164z"/>
	<path fill="#FFFFFF" d="M22.123,15.018c0-2.301-1.864-4.268-4.166-4.268h-5v4.414h9.162C22.122,15.115,22.123,15.067,22.123,15.018
		z"/>
	<path fill="#FFFFFF" d="M23.452,10.682c-0.578,0-1.047,0.469-1.047,1.047v3.975H6.594V9.117c0-0.579-0.468-1.047-1.047-1.047
		C4.969,8.07,4.5,8.538,4.5,9.117V20.93h2.094v-2.883h15.811v2.883H24.5v-9.201C24.5,11.151,24.03,10.682,23.452,10.682z"/>
</g>
</svg>
