<?xml version="1.0" encoding="utf-8"?>
<!-- Generator: Adobe Illustrator 15.0.0, SVG Export Plug-In . SVG Version: 6.00 Build 0)  -->
<!DOCTYPE svg PUBLIC "-//W3C//DTD SVG 1.1//EN" "http://www.w3.org/Graphics/SVG/1.1/DTD/svg11.dtd">
<svg version="1.1" id="Layer_1" xmlns="http://www.w3.org/2000/svg" xmlns:xlink="http://www.w3.org/1999/xlink" x="0px" y="0px"
	 width="24px" height="24px" viewBox="0 0 24 24" enable-background="new 0 0 24 24" xml:space="preserve">
<path fill="none" d="M0,0h24v24H0V0z"/>
<path fill="#757575" d="M-12.75,3.083h-16c-1.1,0-2,0.9-2,2v18l4-4h14c1.1,0,2-0.9,2-2v-12C-10.75,3.983-11.651,3.083-12.75,3.083z
	 M-12.75,17.083h-14l-2,2v-14h16V17.083z"/>
<g>
	<path fill="#757575" d="M1.5,1.5v21h10.539v-21H1.5z M8.592,6.204h2.149v2.333H8.592V6.204z M5.559,6.204h2.149v2.333H5.559V6.204z
		 M2.525,6.204h2.149v2.333H2.525V6.204z M4.675,15.421H2.525v-2.334h2.149V15.421z M4.675,11.92H2.525V9.587h2.149V11.92z
		 M4.675,5.037H2.526V2.704h2.148V5.037z M7.708,15.421H5.559v-2.334h2.149V15.421z M7.708,11.92H5.56V9.587h2.148V11.92z
		 M7.708,5.037H5.56V2.704h2.148V5.037z M10.741,15.421H8.592v-2.334h2.149V15.421z M10.741,11.92H8.592V9.587h2.149V11.92z
		 M10.742,5.037H8.594V2.704h2.148V5.037z"/>
	<path fill="#757575" d="M12.35,8.699v13.793H22.5V8.699H12.35z M13.303,13.191h2.148v2.333h-2.148V13.191z M15.451,18.908h-2.148
		v-2.334h2.148V18.908z M15.451,12.024h-2.147V9.691h2.147V12.024z M16.335,13.191h2.149v2.333h-2.149V13.191z M18.484,18.908
		h-2.149v-2.334h2.149V18.908z M18.484,12.024h-2.149V9.691h2.149V12.024z M19.368,13.191h2.149v2.333h-2.149V13.191z
		 M21.518,18.908h-2.149v-2.334h2.149V18.908z M21.518,12.024h-2.148V9.691h2.148V12.024z"/>
</g>
</svg>
