<?xml version="1.0" encoding="utf-8"?>
<!-- Generator: Adobe Illustrator 15.0.0, SVG Export Plug-In . SVG Version: 6.00 Build 0)  -->
<!DOCTYPE svg PUBLIC "-//W3C//DTD SVG 1.1//EN" "http://www.w3.org/Graphics/SVG/1.1/DTD/svg11.dtd">
<svg version="1.1" id="Layer_1" xmlns="http://www.w3.org/2000/svg" xmlns:xlink="http://www.w3.org/1999/xlink" x="0px" y="0px"
	 width="29px" height="29px" viewBox="0 0 29 29" enable-background="new 0 0 29 29" xml:space="preserve">
<path fill="#8E8E93" d="M6,0h17c3.312,0,6,2.687,6,6v17c0,3.312-2.688,6-6,6H6c-3.313,0-6-2.688-6-6V6C0,2.687,2.687,0,6,0z"/>
<g>
	<path fill="#FFFFFF" d="M14.876,4.084c-0.248-0.434-0.572-0.633-0.891-0.546c-0.51,0.14-1.013,0.988-0.987,2.566l0.127,7.778
		c0.001,0.124-0.096,0.225-0.219,0.228c-0.124,0.002-0.226-0.097-0.227-0.22l-0.101-6.126c-0.013-0.568-0.128-1.062-0.337-1.428l0,0
		c-0.265-0.465-0.665-0.689-1.043-0.584c-0.441,0.12-0.948,0.736-0.927,2.074l0.161,9.704c0.001,0.098,0.005,0.39-0.229,0.488
		c-0.339,0.142-0.743-0.275-1.718-1.282c-0.358-0.368-0.763-0.783-1.222-1.229c-0.868-0.838-2.266-0.884-2.937-0.366
		c-0.372,0.29-0.427,0.694-0.158,1.163c0.109,0.193,0.243,0.423,0.478,0.594c2.596,1.879,5.102,8.78,11.201,8.58
		c3.504-0.113,5.238-2.79,5.149-8.122l-0.144-8.812c-0.011-0.58-0.127-1.082-0.339-1.453c-0.264-0.464-0.663-0.688-1.043-0.584
		c-0.438,0.12-0.941,0.727-0.925,2.054v0.001l0.086,5.229c0.002,0.124-0.097,0.225-0.22,0.227c-0.125,0.003-0.227-0.096-0.227-0.22
		l-0.087-5.23l0.001,0l0,0l-0.033-1.99c-0.016-1.02-0.245-1.626-0.431-1.954c-0.255-0.446-0.597-0.662-0.917-0.574
		c-0.492,0.135-0.976,0.966-0.959,2.523l0.119,7.303c0.002,0.124-0.097,0.226-0.218,0.229c-0.126,0-0.228-0.098-0.229-0.221
		l-0.129-7.819C15.285,5.019,15.062,4.411,14.876,4.084z"/>
</g>
</svg>
