<?xml version="1.0" encoding="utf-8"?>
<!-- Generator: Adobe Illustrator 15.0.0, SVG Export Plug-In . SVG Version: 6.00 Build 0)  -->
<!DOCTYPE svg PUBLIC "-//W3C//DTD SVG 1.1//EN" "http://www.w3.org/Graphics/SVG/1.1/DTD/svg11.dtd">
<svg version="1.1" id="Layer_1" xmlns="http://www.w3.org/2000/svg" xmlns:xlink="http://www.w3.org/1999/xlink" x="0px" y="0px"
	 width="29px" height="29px" viewBox="0 0 29 29" enable-background="new 0 0 29 29" xml:space="preserve">
<path fill="#8E8E93" d="M6,0h17c3.312,0,6,2.687,6,6v17c0,3.312-2.688,6-6,6H6c-3.313,0-6-2.688-6-6V6C0,2.687,2.687,0,6,0z"/>
<path fill="#FFFFFF" d="M14.5,4.5c-5.533,0-10,4.467-10,10s4.467,10,10,10s10-4.467,10-10S20.033,4.5,14.5,4.5L14.5,4.5z
	 M16.078,20.056c0,0.489-0.423,0.911-0.911,0.911h-1.378c-0.489,0-0.911-0.422-0.911-0.911v-5.822c0-0.511,0.422-0.911,0.911-0.911
	h1.378c0.488,0,0.911,0.422,0.911,0.911V20.056z M14.478,11.811c-1.022,0-1.866-0.844-1.866-1.889s0.844-1.889,1.866-1.889
	c1.045,0,1.889,0.845,1.889,1.889S15.522,11.811,14.478,11.811z"/>
</svg>
