<?xml version="1.0" encoding="utf-8"?>
<!-- Generator: Adobe Illustrator 15.0.0, SVG Export Plug-In . SVG Version: 6.00 Build 0)  -->
<!DOCTYPE svg PUBLIC "-//W3C//DTD SVG 1.1//EN" "http://www.w3.org/Graphics/SVG/1.1/DTD/svg11.dtd">
<svg version="1.1" id="Layer_1" xmlns="http://www.w3.org/2000/svg" xmlns:xlink="http://www.w3.org/1999/xlink" x="0px" y="0px"
	 width="29px" height="29px" viewBox="0 0 29 29" enable-background="new 0 0 29 29" xml:space="preserve">
<path fill="#007AFF" d="M24.152,13.151l-2.089-0.246c-0.2-0.949-0.574-1.835-1.091-2.62l1.307-1.654
	c0.091-0.116,0.079-0.299-0.024-0.404l-1.477-1.479c-0.107-0.106-0.29-0.117-0.408-0.024l-1.653,1.303
	c-0.783-0.513-1.671-0.889-2.62-1.087l-0.246-2.087c-0.021-0.149-0.155-0.271-0.307-0.271h-2.09c-0.15,0-0.286,0.122-0.305,0.271
	l-0.246,2.087c-0.95,0.199-1.834,0.574-2.621,1.087L8.63,6.722C8.512,6.629,8.33,6.64,8.226,6.747L6.747,8.226
	C6.639,8.331,6.627,8.515,6.723,8.63l1.299,1.654c-0.511,0.785-0.887,1.671-1.087,2.62l-2.086,0.246
	c-0.15,0.017-0.271,0.154-0.271,0.304v2.089c0,0.15,0.12,0.287,0.271,0.307l2.086,0.246c0.2,0.951,0.576,1.835,1.087,2.622
	L6.723,20.37c-0.096,0.118-0.084,0.299,0.023,0.405l1.479,1.479c0.104,0.106,0.286,0.114,0.405,0.02l1.651-1.3
	c0.786,0.512,1.671,0.889,2.621,1.089l0.246,2.084c0.02,0.149,0.155,0.272,0.305,0.272h2.09c0.148,0,0.285-0.123,0.307-0.272
	l0.244-2.084c0.951-0.2,1.835-0.577,2.621-1.089l1.652,1.3c0.118,0.095,0.3,0.087,0.409-0.02l1.477-1.479
	c0.103-0.106,0.115-0.287,0.021-0.405l-1.303-1.651c0.515-0.787,0.89-1.673,1.092-2.622l2.084-0.246
	c0.15-0.02,0.273-0.156,0.273-0.307v-2.091C24.421,13.305,24.298,13.168,24.152,13.151z M19.62,14.501"/>
<path fill="#007AFF" d="M19.406,14.5"/>
<circle fill="#FFFFFF" cx="14.5" cy="14.5" r="3.781"/>
</svg>
