<?xml version="1.0" encoding="utf-8"?>
<!-- Generator: Adobe Illustrator 15.0.0, SVG Export Plug-In . SVG Version: 6.00 Build 0)  -->
<!DOCTYPE svg PUBLIC "-//W3C//DTD SVG 1.1//EN" "http://www.w3.org/Graphics/SVG/1.1/DTD/svg11.dtd">
<svg version="1.1" id="Layer_1" xmlns="http://www.w3.org/2000/svg" xmlns:xlink="http://www.w3.org/1999/xlink" x="0px" y="0px"
	 width="29px" height="29px" viewBox="0 0 29 29" enable-background="new 0 0 29 29" xml:space="preserve">
<path fill="#007AFF" d="M26.329,24.939c0.317,0.316,0.64,0.547,0.543,0.766l-1.15,1.15c-0.236,0.193-0.575-0.225-0.893-0.541
	c0,0-6.211-6.451-6.25-6.562c-1.652,1.207-4.266,2.342-6.468,2.342c-5.522,0-10-4.477-10-10c0-5.522,4.478-9.999,9.999-9.999
	c5.522,0,10,4.477,10,10c0,2.203-1.012,4.627-2.218,6.282C20,18.414,26.329,24.939,26.329,24.939z M12.11,4.178
	c-4.374,0-7.916,3.543-7.916,7.917c0,4.372,3.542,7.917,7.916,7.917c4.373,0,7.917-3.545,7.917-7.917
	C20.027,7.723,16.484,4.178,12.11,4.178z"/>
</svg>
