<?xml version="1.0" encoding="utf-8"?>
<!-- Generator: Adobe Illustrator 15.0.0, SVG Export Plug-In . SVG Version: 6.00 Build 0)  -->
<!DOCTYPE svg PUBLIC "-//W3C//DTD SVG 1.1//EN" "http://www.w3.org/Graphics/SVG/1.1/DTD/svg11.dtd">
<svg version="1.1" id="Layer_1" xmlns="http://www.w3.org/2000/svg" xmlns:xlink="http://www.w3.org/1999/xlink" x="0px" y="0px"
	 width="29px" height="29px" viewBox="0 0 29 29" enable-background="new 0 0 29 29" xml:space="preserve">
<g transform="translate(5.000000, 7.000000)">
	<path fill="#007AFF" stroke="#007AFF" stroke-width="1.3684" stroke-miterlimit="10" d="M9.506-3.447
		C2.319-3.447-3.5,1.281-3.5,7.11c0,2.101,0.759,4.058,2.06,5.7c0.051,0.051,0.145,0.188,0.206,0.279
		c0.127,0.209,0.207,0.44,0.207,0.692c0,0.096-1.212,3.968-1.212,3.968c-0.088,0.301,0.143,0.609,0.514,0.685
		c0.054,0.014,0.109,0.014,0.163,0.014c0.088,0,0.169-0.014,0.251-0.035l0.108-0.039l3.428-1.507
		c0.061-0.026,0.61-0.238,0.678-0.265c0.231-0.084,0.487-0.125,0.758-0.125c0.245,0,0.481,0.034,0.698,0.102
		c0.006,0,0.013,0,0.013,0.009c0.034,0.015,0.068,0.02,0.102,0.034c1.565,0.54,3.279,0.704,5.088,0.704
		c7.181,0,12.938-4.386,12.938-10.215C22.513,1.281,16.687-3.447,9.506-3.447z"/>
</g>
<g>
	<path fill="#FFFFFF" d="M8.449,15.09c-0.218-0.219-0.328-0.458-0.328-0.713c0-0.275,0.119-0.526,0.361-0.755
		c0.236-0.229,0.597-0.352,1.075-0.371h3.462V9.217c0.104-0.364,0.271-0.64,0.498-0.822c0.229-0.183,0.49-0.274,0.781-0.274
		c0.269,0,0.524,0.083,0.763,0.247c0.239,0.165,0.412,0.42,0.516,0.769v4.115h4.147c0.396,0.092,0.688,0.243,0.875,0.454
		c0.187,0.21,0.281,0.434,0.281,0.672c0,0.255-0.105,0.485-0.312,0.686c-0.209,0.201-0.52,0.348-0.935,0.439h-4.057v4.114
		c-0.022,0.42-0.161,0.735-0.422,0.945c-0.259,0.211-0.544,0.318-0.856,0.318c-0.291,0-0.563-0.096-0.811-0.289
		c-0.25-0.191-0.407-0.49-0.469-0.892v-4.197H9.462C9.005,15.447,8.667,15.31,8.449,15.09z"/>
</g>
</svg>
